<svg xmlns="http://www.w3.org/2000/svg" id="prefix__check" width="40.036" height="40.036" viewBox="0 0 40.036 40.036">
    <defs>
        <style>
            .prefix__cls-1{fill:#fff}
        </style>
    </defs>
    <g id="prefix__Grupo_66" data-name="Grupo 66" transform="translate(9.63 12.931)">
        <g id="prefix__Grupo_65" data-name="Grupo 65">
            <path id="prefix__Caminho_116" d="M143.542 165.87a1.623 1.623 0 0 0-2.294-.061l-10.362 9.827-4.942-5.074a1.623 1.623 0 0 0-2.325 2.265l6.06 6.221a1.624 1.624 0 0 0 2.28.045l11.524-10.929a1.623 1.623 0 0 0 .059-2.294z" class="prefix__cls-1" data-name="Caminho 116" transform="translate(-123.158 -165.364)"/>
        </g>
    </g>
    <g id="prefix__Grupo_68" data-name="Grupo 68">
        <g id="prefix__Grupo_67" data-name="Grupo 67">
            <path id="prefix__Caminho_117" d="M20.018 0a20.018 20.018 0 1 0 20.018 20.018A20.041 20.041 0 0 0 20.018 0zm0 36.79A16.772 16.772 0 1 1 36.79 20.018 16.791 16.791 0 0 1 20.018 36.79z" class="prefix__cls-1" data-name="Caminho 117"/>
        </g>
    </g>
</svg>
