<svg xmlns="http://www.w3.org/2000/svg" id="usuario" width="19.51" height="19.51" viewBox="0 0 19.51 19.51">
    <defs>
        <style>
            .cls-1{fill:#575757}
        </style>
    </defs>
    <path id="Caminho_105" d="M19.51 9.755a9.755 9.755 0 1 0-9.755 9.755 9.75 9.75 0 0 0 9.755-9.755zM9.755 1.143a8.613 8.613 0 0 1 7.137 13.433 9.751 9.751 0 0 0-14.274 0A8.613 8.613 0 0 1 9.755 1.143zM3.331 15.49a8.61 8.61 0 0 1 12.848 0 8.6 8.6 0 0 1-12.848 0zm0 0" class="cls-1" data-name="Caminho 105"/>
    <path id="Caminho_106" d="M169.43 69a3.434 3.434 0 0 0 3.43-3.43v-1.14a3.43 3.43 0 0 0-6.859 0v1.143A3.433 3.433 0 0 0 169.43 69zm-2.286-4.573a2.286 2.286 0 0 1 4.573 0v1.143a2.286 2.286 0 0 1-4.573 0zm0 0" class="cls-1" data-name="Caminho 106" transform="translate(-159.674 -58.676)"/>
</svg>
