<svg xmlns="http://www.w3.org/2000/svg" width="20.026" height="20.026" viewBox="0 0 20.026 20.026">
    <defs>
        <style>
            .prefix__cls-1{fill:#2b2b2b}
        </style>
    </defs>
    <g id="prefix__perfil" transform="translate(-.007)">
        <g id="prefix__user" transform="translate(.007)">
            <path id="prefix__Caminho_374" d="M18.114 15.9a10.013 10.013 0 1 0-16.2 0 10.019 10.019 0 0 1 16.2 0zM6.493 5.906a3.52 3.52 0 0 1 7.041 0v1.173a3.52 3.52 0 0 1-7.041 0zm0 0" class="prefix__cls-1" data-name="Caminho 374"/>
            <path id="prefix__Caminho_375" d="M198.347 96.863a2.349 2.349 0 0 0 2.347-2.347v-1.173a2.347 2.347 0 0 0-4.694 0v1.173a2.349 2.349 0 0 0 2.347 2.347zm0 0" class="prefix__cls-1" data-name="Caminho 375" transform="translate(-188.333 -87.437)"/>
            <path id="prefix__Caminho_376" d="M68.758 334.983a10.009 10.009 0 0 0 14.65 0 8.845 8.845 0 0 0-14.65 0zm0 0" class="prefix__cls-1" data-name="Caminho 376" transform="translate(-66.068 -318.144)"/>
        </g>
    </g>
</svg>
