<svg xmlns="http://www.w3.org/2000/svg" width="24.118" height="24.118" viewBox="0 0 24.118 24.118">
    <defs>
        <style>
            .prefix__cls-1{fill:#484b4a}
        </style>
    </defs>
    <g id="prefix__perfil" transform="translate(-.007)">
        <g id="prefix__user" transform="translate(.007)">
            <path id="prefix__Caminho_374" d="M21.814 19.148a12.059 12.059 0 1 0-19.512 0 12.066 12.066 0 0 1 19.512 0zM7.82 7.112a4.239 4.239 0 0 1 8.479 0v1.414a4.239 4.239 0 0 1-8.479 0zm0 0" class="prefix__cls-1" data-name="Caminho 374"/>
            <path id="prefix__Caminho_375" d="M198.826 98.061a2.829 2.829 0 0 0 2.826-2.826v-1.413a2.826 2.826 0 0 0-5.653 0v1.413a2.829 2.829 0 0 0 2.827 2.826zm0 0" class="prefix__cls-1" data-name="Caminho 375" transform="translate(-186.767 -86.709)"/>
            <path id="prefix__Caminho_376" d="M68.758 335.778a12.054 12.054 0 0 0 17.643 0 10.652 10.652 0 0 0-17.643 0zm0 0" class="prefix__cls-1" data-name="Caminho 376" transform="translate(-65.519 -315.498)"/>
        </g>
    </g>
</svg>
