<svg xmlns="http://www.w3.org/2000/svg" width="133.705" height="133.705" viewBox="0 0 133.705 133.705">
    <defs>
        <style>
            .cls-4{fill:#cfdb8c}
        </style>
    </defs>
    <g id="spa" transform="translate(-16 -16)">
        <ellipse id="Elipse_15" cx="64.5" cy="56" fill="#67c5e0" data-name="Elipse 15" rx="64.5" ry="56" transform="translate(18 18)"/>
        <path id="Caminho_415" fill="#6ed2f0" d="M113.137 28.147v.309c0 9.919-15.6 31.2-24.513 31.2-25.844 0-46.8 14.267-46.8 40.112a53.779 53.779 0 0 0 5.354 22.691C33.011 112.239 24 96.883 24 79.71 24 48.941 52.933 24 88.624 24a73.482 73.482 0 0 1 24.513 4.148z" data-name="Caminho 415" transform="translate(-5.772 -5.771)"/>
        <path id="Caminho_416" fill="#e9eef2" d="M181.594 192.112c0 25.845-22.284 53.482-46.8 53.482S88 217.957 88 192.112 108.952 152 134.8 152s46.794 14.266 46.794 40.112z" data-name="Caminho 416" transform="translate(-51.944 -98.117)"/>
        <circle id="Elipse_16" cx="15.5" cy="15.5" r="15.5" class="cls-4" data-name="Elipse 16" transform="translate(45 79)"/>
        <ellipse id="Elipse_17" cx="16" cy="15.5" class="cls-4" data-name="Elipse 17" rx="16" ry="15.5" transform="translate(89 79)"/>
        <rect id="Retângulo_11" width="31" height="18" fill="#f7cca9" data-name="Retângulo 11" rx="9" transform="translate(67 116)"/>
        <path id="Caminho_417" d="M216.513 390.284h-13.37a11.142 11.142 0 1 1 0-22.284h13.37a11.142 11.142 0 1 1 0 22.284zm-13.37-17.827a6.685 6.685 0 1 0 0 13.371h13.37a6.685 6.685 0 1 0 0-13.371z" data-name="Caminho 417" transform="translate(-126.975 -253.95)"/>
        <path id="Caminho_418" d="M39.606 118.123a64.294 64.294 0 0 0 8.959 13.749c9.651 11.333 22.149 17.833 34.287 17.833s24.636-6.5 34.287-17.833a64.29 64.29 0 0 0 9.005-13.844l.033.045c14.952-11.035 23.527-27.121 23.527-44.134 0-15.539-7-30.129-19.7-41.081C117.393 21.987 100.648 16 82.853 16S48.312 21.987 35.7 32.858C23 43.81 16 58.4 16 73.939c0 17.075 8.6 33.144 23.606 44.184zm74.141 10.859c-8.8 10.337-20.063 16.266-30.894 16.266s-22.091-5.928-30.894-16.266c-8.559-10.054-13.675-23.133-13.675-34.987 0-11.565 4.451-21.25 12.873-28.01 7.932-6.367 19.188-9.873 31.7-9.873s23.763 3.506 31.7 9.873c8.422 6.759 12.873 16.445 12.873 28.01-.009 11.854-5.121 24.933-13.684 34.988zm31.5-55.044c0 13.179-5.662 25.782-15.756 35.517a53.239 53.239 0 0 0 2.386-15.462c0-12.963-5.028-23.851-14.54-31.486-6.763-5.428-15.647-8.963-25.6-10.279a51.979 51.979 0 0 0 8.484-8.874c5.541-7.248 8.22-13.547 9.065-17.855 21.227 8.547 35.962 27.045 35.962 48.44zm-62.4-53.482a71.331 71.331 0 0 1 22.191 3.5c-.576 4.238-3.79 10.713-8.363 16.7-5.031 6.581-10.588 11-13.829 11-13.517 0-25.765 3.855-34.485 10.854-9.513 7.635-14.54 18.522-14.54 31.486a53.233 53.233 0 0 0 2.385 15.46c-10.1-9.732-15.756-22.31-15.756-35.515.007-29.492 27.997-53.484 62.403-53.484z" data-name="Caminho 418"/>
        <path id="Caminho_419" d="M239.6 400h-13.372a2.228 2.228 0 1 0 0 4.457H239.6a2.228 2.228 0 1 0 0-4.457z" data-name="Caminho 419" transform="translate(-150.061 -277.036)"/>
        <path id="Caminho_420" d="M129.827 232a17.827 17.827 0 1 0 17.827 17.827A17.827 17.827 0 0 0 129.827 232zm0 31.2a13.371 13.371 0 1 1 13.373-13.373 13.371 13.371 0 0 1-13.373 13.373z" data-name="Caminho 420" transform="translate(-69.259 -155.833)"/>
        <path id="Caminho_421" d="M289.827 232a17.827 17.827 0 1 0 17.827 17.827A17.827 17.827 0 0 0 289.827 232zm0 31.2a13.371 13.371 0 1 1 13.373-13.373 13.37 13.37 0 0 1-13.373 13.373z" data-name="Caminho 421" transform="translate(-184.691 -155.833)"/>
        <path id="Caminho_422" d="M154.834 271.682a2.228 2.228 0 1 0-3.152 3.151l1.576 1.576a2.228 2.228 0 1 0 3.152-3.151z" data-name="Caminho 422" transform="translate(-97.417 -183.99)"/>
        <path id="Caminho_423" d="M183.118 299.966a2.228 2.228 0 0 0-3.152 3.151l1.576 1.576a2.228 2.228 0 0 0 3.152-3.151z" data-name="Caminho 423" transform="translate(-117.822 -204.396)"/>
        <path id="Caminho_424" d="M181.542 271.682l-1.576 1.576a2.228 2.228 0 0 0 3.152 3.151l1.576-1.576a2.228 2.228 0 1 0-3.152-3.151z" data-name="Caminho 424" transform="translate(-117.822 -183.99)"/>
        <path id="Caminho_425" d="M153.258 299.966l-1.576 1.576a2.228 2.228 0 1 0 3.152 3.151l1.576-1.576a2.228 2.228 0 1 0-3.152-3.151z" data-name="Caminho 425" transform="translate(-97.417 -204.396)"/>
        <path id="Caminho_426" d="M314.834 271.682a2.228 2.228 0 1 0-3.152 3.151l1.576 1.576a2.228 2.228 0 1 0 3.152-3.151z" data-name="Caminho 426" transform="translate(-212.848 -183.99)"/>
        <path id="Caminho_427" d="M343.118 299.966a2.228 2.228 0 1 0-3.152 3.151l1.576 1.576a2.228 2.228 0 0 0 3.152-3.151z" data-name="Caminho 427" transform="translate(-233.254 -204.396)"/>
        <path id="Caminho_428" d="M341.542 271.682l-1.576 1.576a2.228 2.228 0 0 0 3.152 3.151l1.576-1.576a2.228 2.228 0 1 0-3.152-3.151z" data-name="Caminho 428" transform="translate(-233.254 -183.99)"/>
        <path id="Caminho_429" d="M313.258 299.966l-1.576 1.576a2.228 2.228 0 1 0 3.152 3.151l1.576-1.576a2.228 2.228 0 1 0-3.152-3.151z" data-name="Caminho 429" transform="translate(-212.848 -204.396)"/>
    </g>
</svg>
