<svg xmlns="http://www.w3.org/2000/svg" width="15.679" height="15" viewBox="0 0 15.679 15">
    <path id="prefix__avaliacoes" d="M15.638 5.666a1.109 1.109 0 0 0-.97-.689l-4.058-.59L8.794.71A1.109 1.109 0 0 0 7.84 0a1.109 1.109 0 0 0-.955.71L5.07 4.388l-4.058.59a1.109 1.109 0 0 0-.97.689 1.109 1.109 0 0 0 .38 1.128l2.936 2.861-.693 4.044a1.168 1.168 0 0 0 .2 1 .878.878 0 0 0 .69.3 1.416 1.416 0 0 0 .655-.18l3.63-1.908 3.63 1.908a1.415 1.415 0 0 0 .655.18.879.879 0 0 0 .686-.307 1.168 1.168 0 0 0 .2-1l-.693-4.042 2.936-2.862a1.109 1.109 0 0 0 .38-1.128zm0 0" transform="translate(0 -.001)" style="fill:#fecf4f"/>
</svg>
