<svg xmlns="http://www.w3.org/2000/svg" width="24.963" height="20.205" viewBox="0 0 13.963 20.205">
    <g id="agenda" transform="translate(-42.421)">
        <g id="Grupo_84" data-name="Grupo 84" transform="translate(42.421)">
            <path id="Caminho_80" fill="#575757" d="M55.3 0H44.783a2.467 2.467 0 0 0-2.362 2.542v15.12a2.467 2.467 0 0 0 2.362 2.538H55.3a1.041 1.041 0 0 0 .774-.334 1.223 1.223 0 0 0 .307-.818V1.176A1.137 1.137 0 0 0 55.3 0zm-4.669.962h2.613v4.512l-.927-1.6a.465.465 0 0 0-.153-.165.426.426 0 0 0-.61.165l-.923 1.592zm-7.309 1.58a1.531 1.531 0 0 1 1.461-1.58h4.959v4.907a.868.868 0 0 0 .554.866.846.846 0 0 0 .952-.508l.692-1.2.692 1.2a.78.78 0 0 0 1.514-.354V.974H55.3a.2.2 0 0 1 .187.2v13.953a1 1 0 0 0-.187-.017H44.783a2.239 2.239 0 0 0-1.461.551zM55.49 17.186l-10.254.014a.483.483 0 0 0 0 .962l10.254-.012v.895a.214.214 0 0 1-.053.144.182.182 0 0 1-.133.058H44.783a1.586 1.586 0 0 1 0-3.163H55.3a.2.2 0 0 1 .187.2z" data-name="Caminho 80" transform="translate(-42.421)"/>
        </g>
    </g>
</svg>
