<svg xmlns="http://www.w3.org/2000/svg" width="36.222" height="25.023" viewBox="0 0 36.222 25.023">
    <defs>
        <style>
            .prefix__cls-1{fill:#006ac9}.prefix__cls-2{fill:#004a97}.prefix__cls-3{fill:#023563}
        </style>
    </defs>
    <g id="prefix__diners-club" transform="translate(0 -76.8)">
        <path id="prefix__Caminho_640" d="M165.6 126.308a4.133 4.133 0 0 0 2.683 3.908V122.4a4.133 4.133 0 0 0-2.683 3.908z" class="prefix__cls-1" data-name="Caminho 640" transform="translate(-153.526 -42.275)"/>
        <path id="prefix__Caminho_641" d="M243.2 122.4v7.816a4.191 4.191 0 0 0 2.683-3.908 4.133 4.133 0 0 0-2.683-3.908z" class="prefix__cls-2" data-name="Caminho 641" transform="translate(-225.468 -42.275)"/>
        <g id="prefix__Grupo_151" data-name="Grupo 151" transform="translate(8.983 76.8)">
            <path id="prefix__Caminho_642" d="M243.2 179.908a4.191 4.191 0 0 0 2.683-3.908" class="prefix__cls-3" data-name="Caminho 642" transform="translate(-234.451 -168.767)"/>
            <path id="prefix__Caminho_643" d="M133.874 76.8h-3.383a7.114 7.114 0 0 0-7.291 7.291 7.232 7.232 0 0 0 7.291 7.174h3.383c3.966 0 7.583-3.208 7.583-7.174a7.465 7.465 0 0 0-7.583-7.291zm-3.383 13.824a6.62 6.62 0 1 1 6.649-6.591 6.672 6.672 0 0 1-6.649 6.591z" class="prefix__cls-3" data-name="Caminho 643" transform="translate(-123.2 -76.8)"/>
        </g>
        <g id="prefix__Grupo_152" data-name="Grupo 152" transform="translate(0 91.324)">
            <path id="prefix__Caminho_644" d="M1.517 286.833c0 .583.408.642.817.642a2.149 2.149 0 0 0 2.216-2.391 2.281 2.281 0 0 0-2.391-2.45 1.463 1.463 0 0 0-.583.058v4.141zm-.758-3.616c0-.7-.35-.642-.7-.642v-.175h2.216a2.772 2.772 0 0 1 3.033 2.683c0 .758-.467 2.683-3.15 2.683H0v-.175c.467-.058.7-.058.7-.583v-3.791z" class="prefix__cls-2" data-name="Caminho 644" transform="translate(0 -281.933)"/>
            <path id="prefix__Caminho_645" d="M78.417 281.558a.39.39 0 0 1-.35-.408.35.35 0 1 1 .7 0 .39.39 0 0 1-.35.408m-.817 4.492h.175c.233 0 .35 0 .35-.233v-2.1c0-.35-.117-.408-.408-.525v-.117a5.435 5.435 0 0 0 .817-.292.181.181 0 0 1 .117-.058c.058 0 .058.058.058.117v2.916c0 .233.175.233.408.233h.117v.175H77.6v-.116z" class="prefix__cls-2" data-name="Caminho 645" transform="translate(-71.942 -280.45)"/>
            <path id="prefix__Caminho_646" d="M102.925 308.992c0-.292-.058-.35-.467-.525v-.117c.35-.117.642-.233.992-.35a.057.057 0 0 1 .058.058v.525a2.331 2.331 0 0 1 1.342-.583c.642 0 .875.467.875 1.05v1.983c0 .233.175.233.408.233h.117v.175h-1.633v-.175h.117c.233 0 .35 0 .35-.233v-1.983a.629.629 0 0 0-.7-.642 1.848 1.848 0 0 0-.875.35v2.275c0 .233.175.233.408.233h.117v.175H102.4v-.175h.175c.233 0 .35 0 .35-.233v-2.041z" class="prefix__cls-2" data-name="Caminho 646" transform="translate(-94.934 -305.667)"/>
            <path id="prefix__Caminho_647" d="M157.125 309.108c.175 0 .233-.117.233-.175a.629.629 0 0 0-.642-.7.9.9 0 0 0-.875.875zm-1.342.233v.467c.058.7.525 1.342 1.108 1.342a1.526 1.526 0 0 0 1.05-.525l.117.117a1.846 1.846 0 0 1-1.4.875 1.53 1.53 0 0 1-1.458-1.692c0-1.517.992-1.925 1.517-1.925a1.207 1.207 0 0 1 1.283 1.225v.117h-2.216z" class="prefix__cls-2" data-name="Caminho 647" transform="translate(-143.884 -305.667)"/>
            <path id="prefix__Caminho_648" d="M194.517 311.266h.233c.233 0 .35 0 .35-.233v-2.158c0-.233-.292-.292-.408-.35v-.117c.583-.233.875-.408.933-.408s.058 0 .058.117v.7c.175-.292.525-.758.992-.758a.4.4 0 0 1 .408.408c0 .233-.117.408-.35.408s-.233-.175-.525-.175a.675.675 0 0 0-.583.642v1.808c0 .233.175.233.35.233h.408v.175H194.4v-.292z" class="prefix__cls-2" data-name="Caminho 648" transform="translate(-180.226 -305.667)"/>
            <path id="prefix__Caminho_649" d="M235.317 309.65c.117.525.408.933.992.933.467 0 .642-.292.642-.525 0-.875-1.692-.583-1.692-1.866a1.068 1.068 0 0 1 1.167-.992 1.791 1.791 0 0 1 .875.233l.058.758h-.175a.784.784 0 0 0-.817-.758.536.536 0 0 0-.583.525c0 .875 1.75.642 1.75 1.808 0 .525-.408 1.05-1.342 1.05a2.746 2.746 0 0 1-.933-.233l-.058-.875z" class="prefix__cls-2" data-name="Caminho 649" transform="translate(-218.051 -304.925)"/>
            <path id="prefix__Caminho_650" d="M300.783 282.258h-.175c-.117-.875-.758-1.225-1.633-1.225a2.189 2.189 0 0 0-2.158 2.45 2.486 2.486 0 0 0 2.275 2.625 1.512 1.512 0 0 0 1.517-1.342l.175.058-.175 1.108a4.8 4.8 0 0 1-1.692.408 2.71 2.71 0 0 1-2.917-2.857 2.8 2.8 0 0 1 2.916-2.683 4.809 4.809 0 0 1 1.808.408z" class="prefix__cls-2" data-name="Caminho 650" transform="translate(-274.418 -280.45)"/>
            <path id="prefix__Caminho_651" d="M365.6 281.6h.117c.233 0 .35 0 .35-.233v-4.258c0-.525-.117-.525-.408-.583v-.117a5.69 5.69 0 0 0 .817-.35.214.214 0 0 1 .175-.058c.058 0 .058.058.058.117v5.308c0 .233.175.233.408.233h.117v.175H365.6v-.234z" class="prefix__cls-2" data-name="Caminho 651" transform="translate(-338.944 -276)"/>
            <path id="prefix__Caminho_652" d="M391.266 311.775c0 .117.058.117.233.117h.292v.175c-.35.058-.933.175-1.108.233h-.058v-.642a2.221 2.221 0 0 1-1.342.642.831.831 0 0 1-.817-.933v-1.983c0-.175-.058-.408-.467-.408v-.117c.292 0 .875-.058.992-.058.058 0 .058.058.058.233v1.983c0 .233 0 .875.642.875a1.731 1.731 0 0 0 .933-.467v-2.042c0-.175-.35-.233-.642-.292v-.117c.7-.058 1.108-.117 1.167-.117s.058.058.058.117v2.8z" class="prefix__cls-2" data-name="Caminho 652" transform="translate(-359.711 -306.409)"/>
            <path id="prefix__Caminho_653" d="M440.992 281.641a.824.824 0 0 0 .817.758c.817 0 1.167-.817 1.167-1.458a1.481 1.481 0 0 0-1.225-1.517 1.017 1.017 0 0 0-.7.35v1.867zm0-2.042a1.968 1.968 0 0 1 1.167-.525 1.481 1.481 0 0 1 1.4 1.633 1.933 1.933 0 0 1-1.808 1.983 1.721 1.721 0 0 1-1.05-.292l-.233.175-.175-.058a10.42 10.42 0 0 0 .117-1.342v-3.266c0-.525-.117-.525-.408-.583v-.117a5.683 5.683 0 0 0 .817-.35.214.214 0 0 1 .175-.058c.058 0 .058.058.058.117v2.684z" class="prefix__cls-2" data-name="Caminho 653" transform="translate(-407.919 -276.742)"/>
        </g>
        <g id="prefix__Grupo_153" data-name="Grupo 153" transform="translate(.058 98.615)">
            <path id="prefix__Caminho_654" d="M.8 381.141h.058c.175 0 .292 0 .292-.233v-2.158c0-.233-.175-.233-.292-.233H.8v-.117h1.283v.117h-.058c-.175 0-.292 0-.292.233v2.158c0 .233.117.233.292.233h.058v.117H.858v-.117z" class="prefix__cls-1" data-name="Caminho 654" transform="translate(-.8 -378.225)"/>
            <path id="prefix__Caminho_655" d="M2.083 381.258v-.117h-.058c-.175 0-.35 0-.35-.233v-2.158c0-.233.175-.233.35-.233h.058v-.117H.858v.117h.059c.175 0 .35 0 .35.233v2.158c0 .233-.175.233-.35.233H.858v.117h1.225m0 .058H.858v-.175h.059c.175 0 .292 0 .292-.233v-2.158c0-.233-.117-.233-.292-.233H.8v-.117h1.283v.117h-.058c-.175 0-.292 0-.292.233v2.158c0 .233.117.233.292.233h.058v.175z" class="prefix__cls-1" data-name="Caminho 655" transform="translate(-.8 -378.225)"/>
            <path id="prefix__Caminho_656" d="M22.741 379.7v-1.575c0-.35-.233-.408-.35-.408h-.117v-.117h1.108v.117h-.058c-.175 0-.35.058-.35.525v2.275H22.8l-2.158-2.391v1.692c0 .35.058.467.408.467h.058v.117h-1.05c.292 0 .35-.175.35-.525v-1.75a.336.336 0 0 0-.35-.35v-.117h.817z" class="prefix__cls-1" data-name="Caminho 656" transform="translate(-18.6 -377.483)"/>
            <path id="prefix__Caminho_657" d="M22.741 380.441zm0 0zm.058.875h.117v-2.275c0-.525.233-.525.408-.525h.058v-.116h-1.05v.117h.058a.388.388 0 0 1 .408.408v1.575l-1.867-2.1h-.817v.117h.058a.438.438 0 0 1 .408.408v1.75c0 .35-.117.525-.408.525h-.058v.117h1.05v-.117h-.114c-.35 0-.408-.117-.408-.525v-1.75zm.175.058H22.8l-2.1-2.333v1.692c0 .35.058.467.35.467h.117v.117h-1.109v-.175h.058c.292 0 .35-.175.35-.525v-1.75a.336.336 0 0 0-.35-.35H20v-.117h.875l1.808 2.041v-1.517c0-.35-.233-.35-.35-.35h-.058v-.117h1.108v.117h-.058c-.175 0-.35 0-.35.525v2.275z" class="prefix__cls-1" data-name="Caminho 657" transform="translate(-18.6 -378.225)"/>
            <path id="prefix__Caminho_658" d="M68.525 376.35c-.292 0-.35.058-.408.35H68c0-.117.058-.233.058-.35V376h.117c.058.117.117.117.233.117h2.158c.117 0 .233 0 .233-.117h.117c0 .117-.058.233-.058.35v.35l-.117.058c0-.175 0-.408-.292-.408h-.7v2.216c0 .292.117.35.35.35h.058v.117h-1.4v-.117h.058c.233 0 .35 0 .35-.35v-2.216z" class="prefix__cls-1" data-name="Caminho 658" transform="translate(-63.1 -376)"/>
            <path id="prefix__Caminho_659" d="M70.158 380.575h-1.4v-.175h.058c.233 0 .35 0 .35-.35v-2.216h.058v2.216c0 .35-.117.35-.35.35h-.058v.117h.7a2.393 2.393 0 0 1 .642.058v-.117H70.1a.307.307 0 0 1-.35-.35v-2.217h.7c.292 0 .292.233.35.408l.117-.058v-.35a.437.437 0 0 1 .058-.292h-.058c0 .117-.117.117-.233.117h-2.159c-.117 0-.233 0-.233-.117h-.175v.35c0 .117-.058.233-.058.35h.117c.058-.292.117-.408.408-.35-.292 0-.292.058-.35.35H68c0-.117.058-.233.058-.35v-.35h.117c0 .117.117.117.233.117h2.158c.117 0 .175 0 .233-.117h.117c0 .117-.058.233-.058.35v.35h-.175c0-.175 0-.408-.292-.408h-.641v2.217c0 .292.117.35.35.35h.117l-.058.117z" class="prefix__cls-1" data-name="Caminho 659" transform="translate(-63.1 -377.483)"/>
            <path id="prefix__Caminho_660" d="M109.6 381.141h.058c.175 0 .292 0 .292-.233v-2.158c0-.233-.175-.233-.292-.233h-.058v-.117h2.1v.642h-.117c0-.292-.058-.467-.525-.467h-.583v1.108H111c.233 0 .292-.117.35-.35h.117v.933h-.117c0-.233-.058-.408-.35-.408h-.525v.992c0 .292.233.292.525.292.525 0 .7-.058.875-.525h.117a3.01 3.01 0 0 0-.117.642h-2.216v-.117z" class="prefix__cls-1" data-name="Caminho 660" transform="translate(-101.667 -378.225)"/>
            <path id="prefix__Caminho_661" d="M111.816 381.258c.058-.233.058-.408.117-.642h-.058c-.117.467-.35.525-.875.525-.233 0-.525 0-.525-.292v-.992H111c.292 0 .292.175.35.408h.117v-.933h-.117a.309.309 0 0 1-.35.35h-.525v-1.108h.583c.408 0 .525.233.525.467h.117v-.583h-2.042v.117h.058c.175 0 .35 0 .35.233v2.158c0 .233-.175.233-.35.233h-.058v.117h1.108a6.337 6.337 0 0 1 1.05-.058m0 .058H109.6v-.175h.058c.175 0 .292 0 .292-.233v-2.158c0-.175-.117-.233-.292-.233h-.058v-.117h2.1v.642l-.117.058c0-.292-.058-.467-.467-.467h-.583v1.05H111c.233 0 .292-.117.292-.35h.117v.933h-.117c0-.233-.058-.408-.292-.408h-.467v.933c0 .233.233.233.467.233.525 0 .7 0 .817-.467l.117.058a2.928 2.928 0 0 1-.117.7z" class="prefix__cls-1" data-name="Caminho 661" transform="translate(-101.667 -378.225)"/>
            <path id="prefix__Caminho_662" d="M144.933 379.8h.175a.559.559 0 0 0 .642-.642.551.551 0 0 0-.583-.583h-.233zm-.525-.992c0-.292-.175-.292-.292-.292h-.058v-.116h1.283c.525 0 .992.117.992.758a.864.864 0 0 1-.583.758l.7 1.05a.391.391 0 0 0 .408.233v.117h-.817c-.292-.408-.583-.875-.875-1.342h-.292v.875a.307.307 0 0 0 .35.35h.058v.117H144v-.175h.058c.175 0 .292-.058.292-.233v-2.1z" class="prefix__cls-1" data-name="Caminho 662" transform="translate(-133.559 -378.225)"/>
            <path id="prefix__Caminho_663" d="M145.908 379.8c.408 0 .642-.117.642-.642a.551.551 0 0 0-.583-.583h-.233v1.225zm-.233 0v-1.283h.233a.612.612 0 0 1 .642.642c0 .525-.233.642-.642.642zm0 .117h.292a10.608 10.608 0 0 0 .875 1.342h.817v-.117a.44.44 0 0 1-.408-.233l-.7-1.108a.739.739 0 0 0 .583-.7c0-.583-.467-.7-.992-.7h-1.283v.117h.058c.117 0 .292 0 .292.35v2.1c0 .175-.175.233-.292.233h-.117v.117h1.283v-.118h-.058c-.175 0-.35 0-.35-.35v-.933zm1.983 1.4h-.817c-.292-.408-.583-.875-.875-1.342h-.233v.875c0 .292.117.292.35.292h.117v.117h-1.283v-.117h.058c.175 0 .292-.058.292-.233v-2.1c0-.292-.175-.292-.292-.292h-.175v-.117h1.283c.525 0 .992.175.992.758a.864.864 0 0 1-.583.758l.7 1.05a.39.39 0 0 0 .408.233l.058.117z" class="prefix__cls-1" data-name="Caminho 663" transform="translate(-134.301 -378.225)"/>
            <path id="prefix__Caminho_664" d="M187.541 379.7v-1.575c0-.35-.233-.408-.35-.408h-.117v-.117h1.108v.117h-.058c-.175 0-.35.058-.35.525v2.275h-.174l-2.158-2.391v1.692c0 .35.058.467.408.467h.117v.117h-1.05c.292 0 .35-.175.35-.525v-1.75c0-.233-.175-.35-.408-.35h-.059v-.117h.817z" class="prefix__cls-1" data-name="Caminho 664" transform="translate(-171.384 -377.483)"/>
            <path id="prefix__Caminho_665" d="M187.541 380.441zm0 0zm.058.875h.117v-2.275c0-.525.233-.525.408-.525h.058v-.116h-1.05v.117h.058a.388.388 0 0 1 .408.408v1.575l-1.867-2.1h-.817v.117h.058a.438.438 0 0 1 .408.408v1.75c0 .35-.117.525-.408.525h-.058v.117h1.05v-.117h-.058c-.35 0-.408-.117-.408-.525v-1.75zm.175.058h-.174l-2.1-2.333v1.692c0 .35.058.467.35.467h.117v.117h-1.108v-.175h.058c.292 0 .35-.175.35-.525v-1.75a.336.336 0 0 0-.35-.35h-.117v-.117h.875l1.808 2.041v-1.517c0-.35-.233-.35-.35-.35h-.117v-.117h1.108v.117h-.058c-.175 0-.35 0-.35.525v1.867a.865.865 0 0 1 .058.408z" class="prefix__cls-1" data-name="Caminho 665" transform="translate(-171.384 -378.225)"/>
            <path id="prefix__Caminho_666" d="M231.742 376.642l-.408 1.167h.758zm-.583 1.808a.829.829 0 0 0-.117.35c0 .117.175.117.292.117h.058v.117h-.992v-.117a.37.37 0 0 0 .35-.292l.642-1.925.175-.525c.117-.058.292-.117.408-.175h.058c0 .058 0 .058.058.117l.817 2.217c.058.117.117.292.175.408a.269.269 0 0 0 .292.175v.117h-1.225v-.117h.058c.117 0 .233 0 .233-.117a2.525 2.525 0 0 1-.058-.292l-.175-.467h-.933z" class="prefix__cls-1" data-name="Caminho 666" transform="translate(-213.66 -376)"/>
            <path id="prefix__Caminho_667" d="M231.742 377.383zm-.35 1.167h.758l-.408-1.167zm-.058 0l.408-1.225.408 1.225zm.817 1.225h1.167v-.117a.321.321 0 0 1-.292-.175.68.68 0 0 1-.117-.408l-.758-2.158c0-.058 0-.058-.058-.117a1.944 1.944 0 0 1-.35.175 1.854 1.854 0 0 1-.175.525l-.642 1.925a.439.439 0 0 1-.408.292v.117h.875v-.117c-.117 0-.35 0-.35-.175a2.293 2.293 0 0 1 .117-.35l.117-.467h.992l.175.467a.634.634 0 0 1 .058.292c0 .117-.175.117-.292.117v.175zm1.225.058h-1.226v-.175h.058c.117 0 .233 0 .233-.117a2.527 2.527 0 0 1-.058-.292l-.175-.467h-.933l-.117.408a.986.986 0 0 0-.117.292c0 .117.175.117.292.117h.058v.117h-.991v-.058a.394.394 0 0 0 .35-.233l.642-1.925.175-.525a1.943 1.943 0 0 0 .35-.175h.117c0 .058 0 .058.058.117l.817 2.158a2.843 2.843 0 0 0 .175.408c.058.117.117.175.233.175h.058v.175z" class="prefix__cls-1" data-name="Caminho 667" transform="translate(-213.66 -376.742)"/>
            <path id="prefix__Caminho_668" d="M266.925 376.35c-.292 0-.35.058-.408.35h-.117c0-.117.058-.233.058-.35V376h.117c.058.117.117.117.233.117h2.158c.117 0 .233 0 .233-.117h.117c0 .117-.058.233-.058.35v.35l-.117.058c0-.175-.058-.408-.292-.408h-.7v2.216c0 .292.117.35.35.35h.058v.117h-1.4v-.117h.058c.233 0 .35 0 .35-.35v-2.216z" class="prefix__cls-1" data-name="Caminho 668" transform="translate(-247.035 -376)"/>
            <path id="prefix__Caminho_669" d="M270.783 380.575h-1.4v-.175h.058c.233 0 .292 0 .35-.35v-2.216h.058v2.216c0 .35-.117.35-.35.35h-.058v.117h.7a2.393 2.393 0 0 1 .642.058v-.117h-.058a.307.307 0 0 1-.35-.35v-2.217h.7c.292 0 .292.233.35.408l.117-.058v-.35a.437.437 0 0 1 .058-.292h-.058c0 .117-.117.117-.233.117h-2.159c-.117 0-.175 0-.233-.117h-.058v.35c0 .117-.058.233-.058.35h.117c.058-.292.117-.408.408-.35-.292 0-.292.058-.35.35h-.176c0-.117.058-.233.058-.35v-.35h.117c0 .117.117.117.233.117h2.158c.117 0 .175 0 .233-.117h.117c0 .117-.058.233-.058.35v.35l-.175.058c0-.175 0-.408-.292-.408h-.642v2.217c0 .292.117.35.35.35h.117l-.233.058z" class="prefix__cls-1" data-name="Caminho 669" transform="translate(-249.26 -377.483)"/>
            <path id="prefix__Caminho_670" d="M308 381.141c.233 0 .35 0 .35-.233v-2.158c0-.233-.175-.233-.292-.233H308v-.117h1.283v.117h-.058c-.175 0-.292 0-.292.233v2.158c0 .233.175.233.292.233h.058v.117h-1.225v-.117z" class="prefix__cls-1" data-name="Caminho 670" transform="translate(-285.602 -378.225)"/>
            <path id="prefix__Caminho_671" d="M310.025 381.258v-.117h-.058c-.175 0-.35 0-.35-.233v-2.158c0-.233.175-.233.35-.233h.058v-.117H308.8v.117h.058c.175 0 .35 0 .35.233v2.158c0 .233-.175.233-.35.233h-.058v.117h1.225m0 .058H308.8v-.175h.058c.175 0 .292 0 .292-.233v-2.158c0-.175-.117-.233-.292-.233h-.058v-.117h1.283v.117h-.058c-.175 0-.292 0-.292.233v2.158c0 .175.117.233.292.233h.058l-.058.175z" class="prefix__cls-1" data-name="Caminho 671" transform="translate(-286.343 -378.225)"/>
            <path id="prefix__Caminho_672" d="M328.833 380.4c.817 0 .933-.7.933-1.342 0-.583-.35-1.342-.992-1.342-.758 0-.933.642-.933 1.225-.058.758.292 1.458.992 1.458m-.058-2.8a1.44 1.44 0 0 1 1.575 1.458 1.533 1.533 0 0 1-1.575 1.575 1.485 1.485 0 0 1-1.575-1.517 1.52 1.52 0 0 1 1.575-1.517" class="prefix__cls-1" data-name="Caminho 672" transform="translate(-303.402 -377.483)"/>
            <path id="prefix__Caminho_673" d="M327.783 378.2c0-.583.233-1.225.992-1.225.7 0 1.05.758 1.05 1.342s-.117 1.342-.992 1.342c.817 0 .933-.7.933-1.283s-.35-1.342-.992-1.342c-.758 0-.933.642-.992 1.167.058.758.35 1.458 1.05 1.458-.7.058-1.05-.7-1.05-1.458m-.583.175a1.568 1.568 0 0 1 1.575-1.575 1.648 1.648 0 0 0-1.575 1.575 1.507 1.507 0 0 0 1.575 1.458 1.533 1.533 0 0 0 1.575-1.575 1.429 1.429 0 0 0-1.575-1.4 1.525 1.525 0 0 1 1.633 1.458 1.548 1.548 0 0 1-1.575 1.633 1.582 1.582 0 0 1-1.633-1.575" class="prefix__cls-1" data-name="Caminho 673" transform="translate(-303.402 -376.742)"/>
            <path id="prefix__Caminho_674" d="M373.941 379.7v-1.575c0-.35-.233-.408-.35-.408h-.117v-.117h1.108v.117h-.058c-.175 0-.35.058-.35.525v2.275H374l-2.158-2.391v1.692c0 .35.058.467.408.467h.058v.117h-1.05c.292 0 .35-.175.35-.525v-1.75a.336.336 0 0 0-.35-.35h-.058v-.117h.817z" class="prefix__cls-1" data-name="Caminho 674" transform="translate(-344.194 -377.483)"/>
            <path id="prefix__Caminho_675" d="M374.683 380.441zm0 0zm.058.875h.117v-2.275c0-.525.233-.525.408-.525h.058v-.116h-1.05v.117h.058a.388.388 0 0 1 .408.408v1.575l-1.867-2.1h-.817v.117h.058a.438.438 0 0 1 .408.408v1.75c0 .35-.117.525-.408.525h-.058v.117h1.05v-.117h-.058c-.35 0-.408-.117-.408-.525v-1.75zm.175.058h-.175l-2.1-2.333v1.692c0 .35.058.467.35.467h.117v.117H372v-.175h.058c.292 0 .35-.175.35-.525v-1.75a.336.336 0 0 0-.35-.35H372v-.117h.875l1.808 2.041v-1.517c0-.35-.233-.35-.35-.35h-.117v-.117h1.108v.117h-.058c-.175 0-.35 0-.35.525v2.275z" class="prefix__cls-1" data-name="Caminho 675" transform="translate(-344.935 -378.225)"/>
            <path id="prefix__Caminho_676" d="M418.142 376.642l-.408 1.167h.817zm-.583 1.808a.829.829 0 0 0-.117.35c0 .117.175.117.292.117h.058v.117h-.992v-.117a.37.37 0 0 0 .35-.292l.642-1.925.175-.525c.117-.058.292-.117.408-.175h.058c0 .058 0 .058.058.117l.758 2.158c.058.117.117.292.175.408.058.233.175.233.292.233v.117h-1.225v-.117h.058c.117 0 .233 0 .233-.117a2.526 2.526 0 0 1-.058-.292l-.175-.467h-.933z" class="prefix__cls-1" data-name="Caminho 676" transform="translate(-386.469 -376)"/>
            <path id="prefix__Caminho_677" d="M418.142 377.383zm-.35 1.167h.7l-.35-1.108zm-.058 0l.408-1.225.408 1.225zm.817 1.225h1.167v-.117a.321.321 0 0 1-.292-.175c-.058-.117-.117-.292-.175-.408l-.758-2.158c0-.058 0-.058-.058-.117a1.945 1.945 0 0 1-.35.175 1.855 1.855 0 0 1-.175.525l-.642 1.925a.431.431 0 0 1-.35.292v.117h.875v-.117c-.117 0-.35 0-.35-.175a2.29 2.29 0 0 1 .117-.35l.117-.467h.992l.175.467a.635.635 0 0 1 .058.292c0 .117-.175.117-.292.117v.175zm1.225.058h-1.226v-.175h.058c.117 0 .233 0 .233-.117a2.529 2.529 0 0 1-.058-.292l-.175-.467h-.933l-.117.408a.985.985 0 0 0-.117.292c0 .117.175.117.292.117h.058v.117h-.991v-.058a.394.394 0 0 0 .35-.233l.642-1.925.175-.525c.117-.058.292-.117.408-.175h.117c0 .058 0 .058.058.117l.758 2.158a2.85 2.85 0 0 0 .175.408c.058.117.117.175.233.175h.058v.175z" class="prefix__cls-1" data-name="Caminho 677" transform="translate(-386.469 -376.742)"/>
            <path id="prefix__Caminho_678" d="M459.392 380.166a.214.214 0 0 0 .233.233h.525a.491.491 0 0 0 .408-.233.986.986 0 0 0 .117-.292h.117l-.175.7H458.4v-.174h.058c.175 0 .292 0 .292-.292v-2.158c0-.233-.175-.233-.292-.233h-.058v-.117h1.283v.117h-.117c-.175 0-.292 0-.292.233v2.216z" class="prefix__cls-1" data-name="Caminho 678" transform="translate(-425.036 -377.483)"/>
            <path id="prefix__Caminho_679" d="M461.358 381.258c.058-.233.117-.467.175-.642h-.058c0 .117-.058.175-.117.292a.491.491 0 0 1-.408.233h-.525c-.117 0-.292-.058-.292-.233v-2.158c0-.233.117-.233.292-.233h.058v-.117H459.2v.117h.058c.175 0 .35 0 .35.233v2.158c0 .292-.175.292-.35.292h-.058v.117h1.108a6.337 6.337 0 0 1 1.05-.058m.058.058H459.2v-.175h.058c.175 0 .292 0 .292-.233v-2.159c0-.175-.117-.233-.292-.233h-.058v-.117h1.283v.117h-.117c-.175 0-.292 0-.292.233v2.158c0 .175.117.175.233.233h.525a.59.59 0 0 0 .408-.233c.058-.117.117-.175.117-.292h.117a1.436 1.436 0 0 1-.058.7z" class="prefix__cls-1" data-name="Caminho 679" transform="translate(-425.778 -378.225)"/>
            <path id="prefix__Caminho_680" d="M484.408 377.208c.117 0 .117-.058.117-.117a.2.2 0 0 0-.058-.117h-.058v.233zm-.117.233c.058 0 .058 0 .058-.058v-.35c0-.058 0-.058-.058-.058h.233c.058 0 .175.058.175.117a.125.125 0 0 1-.117.117l.058.117c.058.058.058.117.117.117h-.057c-.058 0-.058-.058-.175-.175h-.058v.117c0 .058 0 0 .058.058h-.233zm.175.117a.35.35 0 1 0-.35-.35c.058.175.175.35.35.35m0-.758a.46.46 0 0 1 .467.467c0 .292-.175.408-.467.408a.416.416 0 0 1-.467-.408.5.5 0 0 1 .467-.467" class="prefix__cls-1" data-name="Caminho 680" transform="translate(-448.769 -376.742)"/>
        </g>
        <path id="prefix__Caminho_681" d="M140.115 82.925a7.034 7.034 0 0 0-2.042-4.9 8.03 8.03 0 0 0-4.2-1.225h-3.383a7.114 7.114 0 0 0-7.291 7.291 7.2 7.2 0 0 0 1.808 4.725 9.721 9.721 0 0 0 4.083 1.633 6.768 6.768 0 1 1 1.575.117h.292c5.017.058 9.158-3.383 9.158-7.641z" class="prefix__cls-2" data-name="Caminho 681" transform="translate(-114.217)"/>
        <path id="prefix__Caminho_682" d="M129.691 76.8a7.114 7.114 0 0 0-7.291 7.291 6.853 6.853 0 0 0 1.75 4.608l.175.175a10.286 10.286 0 0 0 4.025 1.633 6.768 6.768 0 1 1 1.575.117h.292a4.415 4.415 0 0 0 .875-.058 7.759 7.759 0 0 0 5.6-8.983 8.111 8.111 0 0 0-2.625-4.725 4.415 4.415 0 0 0-.875-.058z" class="prefix__cls-1" data-name="Caminho 682" transform="translate(-113.476)"/>
    </g>
</svg>
