<svg xmlns="http://www.w3.org/2000/svg" width="68.005" height="30.602" viewBox="0 0 68.005 30.602">
    <path id="prefix__hiper" d="M38.907 46.911l-28.407.01v-.071c0-.039.045-.291.1-.56l.191-.951.189-.96.2-1.013c.056-.283.144-.731.195-1s.137-.7.19-.96.144-.72.2-1.013.146-.741.2-1 .128-.646.175-.871.106-.529.132-.675.11-.578.187-.96.162-.813.189-.96.112-.578.19-.96.163-.813.189-.96.112-.578.19-.96.162-.805.187-.942.093-.489.152-.782l.246-1.226c.077-.381.208-1.045.292-1.475l.222-1.137.155-.782.188-.942.206-1.031.193-.977c.05-.254.134-.678.188-.942s.147-.728.206-1.031.159-.767.221-1.031.15-.584.2-.711a6.592 6.592 0 0 1 .278-.612l.2-.381.178-.241c.1-.132.273-.342.388-.465s.311-.309.434-.413.3-.243.4-.311.28-.185.413-.262.318-.177.413-.223.288-.13.43-.187.413-.152.6-.211.544-.149.789-.2.632-.117.86-.149l.415-.058 28.424-.011 28.424-.011v.071c0 .039-.046.291-.1.56s-.149.729-.207 1.023l-.188.942-.192.96c-.06.303-.152.767-.2 1.031s-.138.7-.19.96-.137.7-.191.96-.136.68-.184.924l-.192.977-.207 1.031c-.056.274-.141.7-.189.942l-.192.977c-.058.293-.15.757-.206 1.031s-.139.69-.185.924l-.191.977-.193.977-.185.924-.209 1.048-.191.96-.187.942c-.058.293-.15.757-.2 1.031s-.14.705-.19.96l-.193.977-.2 1.031-.187.942-.19.96c-.058.294-.151.755-.208 1.027l-.1.494-.123.342c-.068.188-.17.438-.227.555s-.172.324-.257.46-.2.309-.262.386-.239.275-.4.44l-.29.3-.279.2c-.153.113-.319.227-.367.255s-.233.125-.411.217-.428.209-.557.26-.384.138-.567.193-.379.109-.436.121l-.438.094c-.184.04-.555.1-.825.134l-.491.06zM28.8 39.315h.739l.021-.056a.591.591 0 0 0 .021-.162c0-.058.024-.269.054-.468l.155-1.02.185-1.208c.046-.303.1-.691.125-.862a1.287 1.287 0 0 1 .062-.311.608.608 0 0 1 .106.168l.086.168.191.2.191.2.235.1.235.1.28.037.28.037.355-.022.355-.023.384-.1.384-.1.206-.1a4.173 4.173 0 0 0 .447-.259l.241-.162.224-.232a5.238 5.238 0 0 0 .387-.454 2.025 2.025 0 0 0 .162-.242 1.023 1.023 0 0 1 .1-.168 4.031 4.031 0 0 0 .244-.5c.081-.2.206-.547.28-.782l.133-.426.069-.369c.038-.2.087-.539.108-.746l.039-.377-.023-.32-.023-.32-.072-.32-.072-.32-.116-.239-.118-.257-.224-.246-.224-.246-.265-.142-.265-.142-.292-.072-.292-.072-.292-.022-.292-.022-.326.039-.326.039-.266.07-.266.07-.231.11a4.154 4.154 0 0 0-.411.229 2.076 2.076 0 0 0-.227.167 1.081 1.081 0 0 1-.137.109l-.09.061.063-.312c.035-.172.064-.332.064-.357v-.044H29.9l-.111.72c-.061.4-.157 1.008-.213 1.359l-.189 1.173-.189 1.155c-.056.342-.149.886-.207 1.208l-.187 1.048-.19 1.066-.211 1.173c-.057.313-.149.809-.206 1.1s-.111.569-.121.613l-.019.08zm3.182-4.109l-.287.018-.188-.034-.188-.034-.191-.09-.191-.09-.133-.131-.133-.131-.077-.178a2.567 2.567 0 0 1-.121-.369l-.044-.191.018-.306.018-.306.089-.48c.049-.264.136-.76.194-1.1s.146-.843.2-1.114l.09-.492.2-.17a3.2 3.2 0 0 1 .382-.278l.184-.108.241-.077.241-.077.309-.019.309-.019.252.056.252.056.178.085.178.085.149.155.149.155.08.164a2.447 2.447 0 0 1 .138.393l.058.228-.018.675-.018.675-.088.4c-.049.22-.141.555-.205.746l-.117.347-.143.281a4.979 4.979 0 0 1-.27.464 1.972 1.972 0 0 1-.247.29c-.066.059-.177.151-.246.2l-.126.1-.292.1-.292.1-.287.018zm7.139.977h.378l.378-.036c.208-.02.548-.06.756-.091s.567-.1.8-.151l.42-.1.021-.16c.012-.088.059-.35.1-.583l.084-.423-.019-.019-.019-.019-.128.064c-.071.035-.291.119-.489.187l-.361.123-.379.076-.379.076h-1.2l-.206-.068a3.167 3.167 0 0 1-.371-.152l-.165-.084-.136-.127-.136-.127-.106-.191-.106-.191-.066-.24-.066-.24v-.889l.059-.4.059-.4.517-.025.517-.025 1.916.032 1.912.013.058-.253c.032-.139.08-.427.108-.64l.05-.387v-.65l-.054-.243-.054-.243-.09-.161a2.241 2.241 0 0 0-.194-.285 1.553 1.553 0 0 0-.227-.214 3.334 3.334 0 0 0-.295-.184l-.172-.094-.3-.075-.3-.075-.37-.037-.37-.037-.344.023-.344.023-.413.082-.413.082-.258.107a4.711 4.711 0 0 0-.481.238 3.369 3.369 0 0 0-.378.261c-.085.071-.232.21-.327.308a3.191 3.191 0 0 0-.312.392 5.2 5.2 0 0 0-.261.462c-.067.137-.154.329-.194.426s-.112.3-.16.444-.125.426-.169.622-.106.517-.136.715l-.055.36v1.058l.052.231c.029.127.084.319.122.426a2.954 2.954 0 0 0 .158.355 1.986 1.986 0 0 0 .23.315 2.968 2.968 0 0 0 .314.287 2.452 2.452 0 0 0 .374.227l.2.1.282.07c.155.039.389.085.52.1s.408.034.616.036zm.648-5.007c-.952 0-1.731-.007-1.731-.016s.041-.133.09-.275.137-.356.194-.473l.1-.213.227-.234.227-.234.223-.11a2.526 2.526 0 0 1 .361-.147 3.556 3.556 0 0 1 .481-.059l.344-.023.264.035.264.035.192.091.192.091.105.117a1.263 1.263 0 0 1 .153.211l.048.094.032.208.032.208-.036.347-.036.347H39.77zm10.286 5.007h.378l.43-.053c.236-.029.551-.077.7-.107s.388-.089.533-.131a1.832 1.832 0 0 0 .291-.1 1.751 1.751 0 0 0 .091-.358c.035-.184.079-.43.1-.547a.994.994 0 0 0 .022-.227c-.007-.008-.032 0-.056.022a2.97 2.97 0 0 1-.375.163l-.331.127-.471.094-.471.094-.4-.014-.4-.014-.228-.082-.228-.082-.176-.159-.176-.159-.117-.22-.117-.22-.056-.294-.056-.294v-.763l.068-.462.068-.462.071-.249.1-.355a3.923 3.923 0 0 1 .14-.373c.062-.147.173-.373.246-.5l.133-.237.163-.175.163-.175.173-.111.173-.111.222-.071a4.032 4.032 0 0 1 .48-.112l.258-.042.378.02.378.02.447.092.447.092.182.07c.1.039.186.07.191.07a2.348 2.348 0 0 0 .053-.293c.024-.161.067-.427.095-.59a1.534 1.534 0 0 0 .036-.312 1.862 1.862 0 0 0-.3-.049c-.156-.018-.58-.051-.942-.073l-.658-.039-.464.037-.464.037-.344.075-.344.075-.221.092a3.17 3.17 0 0 0-.4.2c-.1.061-.219.142-.272.181a4.786 4.786 0 0 0-.361.339l-.263.268-.147.223a5.749 5.749 0 0 0-.311.567l-.164.345-.126.373c-.069.205-.165.541-.214.746l-.089.373-.032.338-.032.338v.889l.032.258.032.258.1.266.1.266.119.192.119.192.189.192.189.192.2.109.2.109.263.075a4.526 4.526 0 0 0 .464.106 5.5 5.5 0 0 0 .58.035zm5.655-.013l.464-.014.292-.077.293-.079.189-.092a3.559 3.559 0 0 0 .378-.223 2.937 2.937 0 0 0 .358-.3 4.025 4.025 0 0 0 .306-.36.923.923 0 0 1 .147-.177 3.112 3.112 0 0 1-.039.365 5.524 5.524 0 0 0-.049.577v.222h1.262l.019-.506.019-.506.09-.658c.05-.362.13-.9.178-1.191s.132-.789.186-1.1l.191-1.084.092-.515v-.89l-.1-.206-.1-.206-.132-.131-.132-.131-.217-.114-.217-.114-.323-.074-.323-.074-.445-.035-.445-.035-.573.037c-.315.02-.759.06-.986.088l-.413.052h-.562l-.041.2c-.023.112-.085.379-.139.593a3.236 3.236 0 0 0-.087.4 2.206 2.206 0 0 0 .334-.078c.178-.049.555-.131.839-.181l.516-.091.464-.02.464-.02.3.054.3.054.2.1.2.1.112.172.112.172v.542l-.059.3-.059.3H56.1l-.4.115a4.534 4.534 0 0 0-.548.186.829.829 0 0 1-.175.071 1.944 1.944 0 0 0-.294.169l-.263.169-.207.213a3.289 3.289 0 0 0-.323.391 3.4 3.4 0 0 0-.231.454l-.114.276-.053.31-.053.31v.651l.05.271.05.271.093.177a2.222 2.222 0 0 0 .209.317l.116.14.206.129.206.129.235.069a4.458 4.458 0 0 0 .438.1l.2.033.464-.014zm.43-.994l-.275.015-.182-.048a1.9 1.9 0 0 1-.338-.131l-.156-.083-.085-.1a1.67 1.67 0 0 1-.159-.251l-.074-.146-.014-.342-.014-.342.058-.207a3.494 3.494 0 0 1 .167-.44l.109-.232.208-.214.208-.214.221-.11.221-.11.275-.068.275-.068h1.719l.054.023.054.023-.046.279c-.025.153-.085.431-.133.617s-.133.459-.189.607-.1.279-.1.291a1.93 1.93 0 0 1-.126.24l-.126.218-.206.211a1.416 1.416 0 0 1-.234.211.636.636 0 0 0-.154.089l-.127.089-.279.091-.279.091zm11.191 1.007h.327l.309-.052c.17-.029.387-.075.481-.1a2.49 2.49 0 0 0 .378-.16l.206-.109.177-.161.177-.161.187-.258a3 3 0 0 0 .207-.311l.02-.053-.015.182c-.01.1-.031.258-.048.355s-.04.286-.053.418l-.023.24h1.349v-.48l.1-.906c.057-.5.14-1.162.186-1.475s.116-.761.157-1l.159-.942c.047-.284.132-.779.189-1.1s.148-.834.2-1.137l.188-1.048c.049-.274.137-.753.195-1.066s.143-.753.189-.977.083-.421.083-.435v-.027h-1.467l-.022.222c-.012.122-.068.526-.125.9s-.15.963-.206 1.315l-.121.758-.018.118-.058-.026c-.032-.014-.205-.064-.385-.11l-.327-.085-.447-.036-.447-.036-.378.036-.378.036-.344.09-.344.09-.327.165-.327.165-.235.178-.241.184-.208.23a5.16 5.16 0 0 0-.367.466l-.159.235-.187.4c-.1.221-.228.514-.278.651s-.138.44-.2.674l-.105.425-.052.552-.052.552.039.444.039.444.046.16c.025.088.079.245.119.348l.073.188.132.185.132.185.151.128.151.128.206.106a2.776 2.776 0 0 0 .423.167 3.74 3.74 0 0 0 .43.09c.117.016.36.031.54.033zm.586-1.008l-.26.014-.175-.033a1.861 1.861 0 0 1-.343-.107l-.167-.074-.141-.119-.141-.119-.1-.207-.1-.207-.048-.231-.048-.231v-.924l.055-.409.055-.409.086-.284a2.969 2.969 0 0 0 .087-.328 1.755 1.755 0 0 1 .1-.284c.057-.132.152-.337.211-.454a3.733 3.733 0 0 1 .246-.406 3.413 3.413 0 0 1 .3-.355 2.314 2.314 0 0 1 .317-.26l.154-.1.27-.1.27-.1h1.135l.327.094c.18.052.37.111.424.133l.1.039-.019.1-.091.524-.173 1c-.056.318-.141.785-.19 1.048s-.12.6-.157.746-.091.35-.118.451a3.02 3.02 0 0 1-.144.391 3.13 3.13 0 0 1-.2.366 2.025 2.025 0 0 1-.223.271 2.926 2.926 0 0 1-.3.241l-.189.13-.273.09-.273.09-.26.014zm-50.6.835h.835l.06-.382c.033-.21.1-.614.143-.9l.189-1.173.194-1.191c.048-.291.126-.748.171-1.011a4.527 4.527 0 0 1 .1-.5l.019-.02h4.492l.025.026.025.026-.039.205c-.021.113-.085.461-.141.774l-.209 1.173c-.059.332-.145.8-.19 1.048s-.137.756-.2 1.137-.121.713-.121.737v.044h1.678l.037-.222c.02-.122.053-.342.073-.489s.067-.458.106-.693.115-.7.171-1.031.148-.9.206-1.262l.191-1.173c.047-.284.131-.763.186-1.066s.148-.815.205-1.137.144-.81.191-1.084.135-.769.193-1.1.133-.72.165-.862l.058-.258h-1.7l-.023.169c-.013.093-.054.353-.091.578s-.106.625-.151.889-.13.768-.186 1.12-.129.818-.16 1.035l-.057.4-1.247.026-1.247.026-1.044-.026c-.574-.014-1.047-.028-1.051-.032s.016-.142.043-.307.08-.453.117-.638.106-.554.154-.817.1-.592.121-.729.057-.365.086-.506.084-.44.122-.663.079-.431.09-.462l.021-.056h-1.684l-.054.311c-.03.171-.069.415-.088.542s-.081.535-.139.906l-.19 1.226-.189 1.226c-.057.371-.152.947-.21 1.279s-.142.8-.187 1.048L17 33.2c-.059.323-.146.778-.193 1.013s-.1.506-.114.6-.07.38-.118.626-.089.475-.089.506v.058h.835zm9.248 0h.74l.021-.056a.687.687 0 0 0 .021-.18c0-.068.047-.423.1-.788s.151-.96.209-1.321l.19-1.173c.046-.284.13-.755.184-1.048l.187-1.013c.048-.264.142-.766.21-1.116s.131-.65.141-.667l.019-.031-.748.01-.748.01-.062.462c-.034.254-.109.758-.166 1.12l-.193 1.226c-.049.313-.133.817-.188 1.12l-.182 1.027-.191 1.031c-.057.303-.134.7-.171.889s-.076.374-.088.418l-.021.08h.74zm17.3 0h.735l.022-.321c.012-.177.054-.532.092-.791s.118-.774.176-1.145.166-.99.24-1.374.157-.766.185-.849a1 1 0 0 0 .051-.2 1.924 1.924 0 0 1 .123-.324 4.461 4.461 0 0 1 .279-.516l.157-.24.21-.2.21-.2.259-.128.259-.128h.8l.194.06c.107.033.2.06.215.06s.02-.038.02-.084.039-.28.086-.52.086-.446.086-.459a.9.9 0 0 0-.249-.1 3.056 3.056 0 0 0-.421-.1l-.172-.022-.223.041a2.81 2.81 0 0 0-.406.11 2.282 2.282 0 0 0-.369.192 2.673 2.673 0 0 0-.354.293 4.15 4.15 0 0 0-.345.419l-.226.32-.049.071.03-.142c.016-.078.062-.334.1-.569s.08-.454.09-.489l.018-.062h-1.323v.087c0 .047-.039.331-.086.631l-.173 1.114c-.048.314-.133.857-.189 1.208s-.141.856-.189 1.12-.133.728-.19 1.031l-.207 1.1-.154.8c-.027.139-.049.258-.049.275v.031h.734zm17.425 0h.751v-.475l.086-.589c.048-.324.126-.837.174-1.14s.109-.687.134-.853.092-.526.149-.8.127-.57.157-.658a1.154 1.154 0 0 0 .055-.205 2.448 2.448 0 0 1 .142-.355l.142-.31.187-.257.187-.257.2-.159a2.958 2.958 0 0 1 .4-.258l.2-.1h.86l.169.056.169.056.029-.018.029-.018v-.113a4.782 4.782 0 0 1 .082-.516l.08-.4-.09-.037c-.05-.02-.168-.062-.262-.093l-.172-.056h-.618l-.252.092-.252.092-.189.118-.189.118-.246.267-.246.267-.132.207a.988.988 0 0 1-.142.2c-.006-.006.034-.243.088-.527s.1-.551.1-.6v-.08H61.8v.023c0 .012-.032.24-.07.506s-.117.78-.173 1.141l-.205 1.3c-.056.355-.142.856-.19 1.12l-.188 1.031c-.055.303-.148.791-.2 1.084l-.166.862-.063.329h.751zm-33.27-8.674h.209l.166-.058.166-.058.147-.154.147-.154.077-.205.077-.205v-.6l-.069-.118-.069-.118-.12-.077-.12-.077h-.511l-.176.081-.176.081-.1.113-.1.113-.08.2-.08.2-.015.3-.015.3.075.151.075.151.144.068.144.068h.209z" transform="translate(-10.5 -16.319)" style="fill:#b3131b"/>
</svg>
