<svg xmlns="http://www.w3.org/2000/svg" width="45.135" height="24.871" viewBox="0 0 57.135 24.871">
    <path id="prefix__hipercard" d="M34.367 41.181L10.5 41.19v-.057c0-.032.038-.236.085-.455s.119-.567.161-.773l.159-.78.168-.823.164-.809c.043-.215.115-.565.16-.78l.17-.823.164-.809c.042-.209.108-.525.147-.708s.089-.43.111-.549.093-.47.157-.78.136-.661.159-.78.094-.47.159-.78.137-.661.159-.78.094-.47.16-.78.136-.654.157-.765.078-.4.127-.635l.207-1c.065-.313.175-.849.245-1.2s.154-.765.187-.924l.13-.635.157-.765.173-.838.162-.794.158-.765.173-.838c.05-.247.134-.623.186-.838s.126-.474.164-.578a5.273 5.273 0 0 1 .234-.5l.164-.31.15-.2c.082-.108.229-.278.326-.378s.261-.251.364-.335.253-.2.332-.252.235-.15.347-.213.267-.144.347-.181.242-.106.361-.152.347-.123.505-.171.457-.121.663-.162.531-.095.722-.121l.348-.047 23.881-.009 23.881-.009v.057c0 .032-.038.236-.085.455s-.125.593-.174.831l-.158.765-.161.78-.172.838-.159.78c-.043.215-.115.565-.16.78l-.154.751-.161.794c-.048.238-.127.615-.173.838l-.159.765-.161.794c-.048.238-.126.615-.173.838s-.117.56-.155.751l-.161.794-.162.794c-.039.194-.109.529-.155.751l-.176.852c-.051.246-.122.6-.16.78s-.108.527-.157.765l-.172.838-.16.78-.163.794-.172.838-.157.765-.159.78c-.048.238-.127.614-.175.835l-.087.4-.1.278c-.057.153-.143.356-.19.451s-.145.264-.216.374-.17.251-.22.314-.2.223-.335.358l-.244.245-.234.167c-.129.092-.268.185-.309.207s-.2.1-.345.176-.36.17-.468.211-.323.112-.477.157-.319.089-.366.1l-.368.076c-.155.033-.467.082-.693.109l-.412.049zm-8.491-6.173h.624l.018-.046a.465.465 0 0 0 .018-.131c0-.047.02-.218.045-.38l.13-.829.156-.982c.039-.246.086-.561.105-.7a1.017 1.017 0 0 1 .052-.253.493.493 0 0 1 .089.137l.072.137.16.161.16.161.2.079.2.079.235.03.235.03.3-.018.3-.018.323-.084.323-.084.173-.079a3.539 3.539 0 0 0 .376-.211l.2-.132.189-.188a4.3 4.3 0 0 0 .325-.369 1.642 1.642 0 0 0 .136-.2.824.824 0 0 1 .082-.137 3.232 3.232 0 0 0 .2-.41c.068-.159.173-.445.235-.635l.112-.347.058-.3c.032-.165.073-.438.091-.607l.033-.306-.019-.26-.019-.26-.06-.26-.06-.26-.1-.195-.1-.195-.188-.2-.188-.2-.223-.115-.223-.115-.246-.059-.246-.059-.246-.018-.246-.018-.274.031-.274.031-.223.057-.223.057-.194.09a3.525 3.525 0 0 0-.345.186 1.742 1.742 0 0 0-.19.136.9.9 0 0 1-.115.089l-.076.05.053-.254c.029-.14.054-.27.054-.29v-.036H26.8l-.093.585c-.051.322-.132.819-.179 1.1l-.159.953-.159.939c-.048.278-.125.72-.174.982l-.157.852-.159.867-.177.953-.173.9c-.047.243-.093.463-.1.5l-.016.065h.621zm2.674-3.34l-.241.014-.158-.028-.158-.028-.16-.073-.16-.073-.112-.107-.112-.107-.065-.144a2.039 2.039 0 0 1-.1-.3l-.037-.155.015-.249.015-.249.074-.39c.041-.214.114-.617.163-.9s.123-.685.165-.905l.076-.4.166-.138a2.685 2.685 0 0 1 .321-.226l.155-.088.2-.063L28.8 27l.26-.015.26-.015.212.045.212.045.149.069.149.069.125.126.125.126.068.133a1.945 1.945 0 0 1 .116.319l.048.186-.015.549-.015.549-.074.324c-.041.178-.118.451-.173.607l-.1.282-.121.228a4.016 4.016 0 0 1-.227.377 1.619 1.619 0 0 1-.208.236c-.056.048-.149.122-.207.166l-.106.079-.245.083-.245.083zm6 .794h.318l.318-.029c.175-.016.461-.049.635-.074s.477-.08.671-.122l.353-.078.018-.13c.01-.072.049-.285.088-.474l.071-.343L37 31.2l-.016-.016-.108.052c-.059.029-.244.1-.411.152l-.3.1-.318.062-.318.062h-1.011l-.173-.055a2.713 2.713 0 0 1-.312-.124l-.138-.068-.114-.1-.114-.1-.089-.165-.089-.156-.056-.2-.056-.2v-.722l.05-.322.05-.322.435-.02.435-.02 1.607.01 1.607.01.049-.206c.027-.113.067-.347.091-.52l.042-.314V27.5l-.046-.2-.046-.2-.076-.131a1.82 1.82 0 0 0-.163-.231 1.288 1.288 0 0 0-.19-.174 2.816 2.816 0 0 0-.248-.15l-.144-.077-.252-.061-.252-.061-.311-.03-.311-.03-.289.019-.289.019-.347.067-.347.067-.217.087a4.014 4.014 0 0 0-.4.193 2.837 2.837 0 0 0-.318.212c-.071.058-.2.171-.275.25a2.61 2.61 0 0 0-.262.318 4.2 4.2 0 0 0-.22.376c-.056.111-.13.267-.163.347s-.094.242-.135.361-.1.347-.142.505-.089.42-.114.581l-.046.292v.86l.044.188a3.538 3.538 0 0 0 .1.347 2.362 2.362 0 0 0 .133.289 1.618 1.618 0 0 0 .193.256 2.466 2.466 0 0 0 .264.233 2.074 2.074 0 0 0 .314.185l.17.077.237.057c.13.031.327.069.437.083s.343.027.518.029zm.544-4.069c-.8 0-1.454-.006-1.454-.013s.034-.108.076-.224.115-.289.163-.384l.087-.173.191-.19.191-.19.188-.09a2.163 2.163 0 0 1 .3-.119 3.084 3.084 0 0 1 .4-.048l.289-.018.222.029.222.029.161.074.161.074.088.1a1.029 1.029 0 0 1 .129.172l.04.076.027.169.027.169-.03.282-.03.282zm8.642 4.069h.318l.361-.043c.2-.024.463-.063.587-.087s.326-.072.448-.106a1.573 1.573 0 0 0 .245-.083 1.387 1.387 0 0 0 .076-.291c.029-.149.066-.349.082-.445a.782.782 0 0 0 .018-.185c-.006-.006-.027 0-.047.018a2.541 2.541 0 0 1-.315.133l-.278.1-.4.077-.4.077-.337-.011-.337-.011-.191-.066-.191-.066-.148-.129-.148-.129-.1-.179-.1-.179-.047-.239-.047-.239v-.62l.057-.376.057-.376.06-.2c.033-.111.07-.241.083-.289a3.119 3.119 0 0 1 .118-.3c.052-.119.145-.3.207-.409l.112-.193.137-.142.137-.142.145-.09.145-.09.187-.058a3.484 3.484 0 0 1 .4-.091l.217-.034.318.016.318.016.376.075.376.075.153.057c.084.031.156.057.161.057a1.856 1.856 0 0 0 .045-.238c.02-.131.056-.347.08-.479a1.207 1.207 0 0 0 .03-.254 1.612 1.612 0 0 0-.251-.04c-.131-.015-.487-.041-.791-.059l-.553-.032-.39.03-.39.03-.289.061-.289.061-.186.074a2.7 2.7 0 0 0-.333.164c-.081.049-.184.116-.229.147a3.969 3.969 0 0 0-.3.275l-.221.218-.123.181a4.627 4.627 0 0 0-.261.461l-.138.28-.105.3c-.058.167-.139.44-.18.607l-.075.3-.027.274-.027.274v.722l.027.21.027.21.087.216.087.216.1.156.1.156.159.156.159.156.168.089.168.089.221.061a3.911 3.911 0 0 0 .39.086 4.774 4.774 0 0 0 .487.028zm4.751-.011l.39-.011.246-.063.246-.063.159-.075a3.014 3.014 0 0 0 .318-.181 2.449 2.449 0 0 0 .3-.247 3.3 3.3 0 0 0 .257-.293.758.758 0 0 1 .124-.144 2.447 2.447 0 0 1-.032.3 4.342 4.342 0 0 0-.041.469v.181h1.06l.016-.412.016-.412.076-.534c.042-.294.109-.729.149-.968s.111-.641.157-.9.118-.651.16-.881l.078-.419v-.724l-.082-.167-.084-.164-.111-.106-.111-.106-.182-.092-.182-.092-.271-.06-.271-.06-.372-.027-.374-.028-.481.03c-.265.016-.637.049-.828.072l-.347.042H48l-.034.166c-.019.091-.071.308-.117.482a2.558 2.558 0 0 0-.073.326 1.9 1.9 0 0 0 .281-.064c.149-.04.466-.106.7-.147l.435-.079.39-.016.39-.016.251.044.251.044.168.083.168.083.094.14.096.138v.441l-.05.242-.05.242h-2.078l-.34.093a3.9 3.9 0 0 0-.46.151.71.71 0 0 1-.147.058 1.65 1.65 0 0 0-.247.137l-.221.137-.174.173a2.691 2.691 0 0 0-.271.318 2.73 2.73 0 0 0-.194.369l-.1.224-.044.252-.044.252v.529l.042.22.042.22.078.144a1.8 1.8 0 0 0 .175.257l.1.114.173.1.173.1.2.056c.109.031.274.068.368.083l.17.027.39-.011zm.361-.808l-.231.012-.153-.039a1.626 1.626 0 0 1-.284-.106l-.131-.067-.071-.085a1.351 1.351 0 0 1-.133-.2l-.062-.119-.012-.278-.012-.278.049-.168a2.781 2.781 0 0 1 .14-.357l.091-.189.175-.174.175-.174.186-.09.186-.09.231-.055.231-.055h1.444l.046.019.046.019-.038.227c-.021.125-.072.35-.112.5s-.112.373-.159.493-.085.227-.085.236a1.55 1.55 0 0 1-.105.195l-.109.18-.173.172a1.178 1.178 0 0 1-.2.172.54.54 0 0 0-.13.072l-.106.072-.234.074-.234.074-.231.012zm9.4.818h.274l.26-.042c.143-.023.325-.061.4-.083a2.131 2.131 0 0 0 .318-.13l.173-.089.149-.131.149-.131.157-.209a2.433 2.433 0 0 0 .174-.253l.017-.043-.015.144c-.008.079-.026.209-.04.289s-.034.232-.044.339l-.019.195h1.133v-.39l.086-.737c.047-.405.118-.945.156-1.2s.1-.618.131-.809.094-.535.134-.765l.159-.9c.048-.267.124-.678.17-.924l.158-.852.164-.867c.049-.255.12-.612.159-.794s.07-.342.07-.354v-.022h-1.233l-.018.181c-.01.1-.057.427-.105.729l-.173 1.069c-.047.286-.093.563-.1.616l-.015.1-.049-.021c-.027-.011-.172-.052-.323-.09l-.274-.069-.376-.029-.376-.029-.318.03-.318.03-.289.073-.289.073-.274.134-.274.134-.2.15-.2.15-.175.187a4.214 4.214 0 0 0-.308.378l-.134.191-.157.327c-.086.18-.191.418-.234.529s-.116.358-.165.548l-.088.346-.044.449-.044.449.033.361.033.361.039.13c.021.071.066.2.1.283l.061.153.111.151.111.151.127.1.127.1.173.086a2.38 2.38 0 0 0 .355.136 3.235 3.235 0 0 0 .361.073c.1.013.3.025.453.027zm.493-.82l-.218.012-.147-.027a1.6 1.6 0 0 1-.288-.087l-.141-.06-.118-.1-.118-.1-.088-.169-.088-.169-.04-.188-.04-.188v-.752l.047-.332.047-.332.072-.231a2.348 2.348 0 0 0 .073-.266 1.4 1.4 0 0 1 .087-.231c.048-.108.128-.274.177-.369a3.016 3.016 0 0 1 .207-.33 2.8 2.8 0 0 1 .253-.289 1.933 1.933 0 0 1 .266-.212l.129-.08.227-.079.227-.079h.953l.274.076c.151.042.311.09.356.108l.082.032-.016.079c-.009.044-.043.235-.076.426s-.1.555-.145.809-.119.638-.16.852-.1.487-.132.607-.076.284-.1.367a2.4 2.4 0 0 1-.121.318 2.52 2.52 0 0 1-.17.3 1.659 1.659 0 0 1-.187.22 2.447 2.447 0 0 1-.256.2l-.159.106-.23.073-.23.073-.218.012zm-42.512.679h.7l.05-.311.12-.729.159-.953.163-.968.144-.821a3.576 3.576 0 0 1 .086-.4l.016-.016h3.774l.021.021.021.021-.033.167-.118.629-.176.953c-.05.27-.121.654-.16.852s-.115.615-.171.924-.1.58-.1.6v.036h1.409l.031-.181c.017-.1.045-.278.061-.4s.057-.373.089-.563.1-.568.143-.838.124-.732.173-1.025l.16-.953c.039-.23.11-.62.157-.867s.124-.662.172-.924l.161-.881.163-.9c.05-.275.112-.585.138-.7l.049-.209h-1.426l-.019.137c-.011.075-.045.287-.077.469l-.127.722c-.038.214-.109.624-.156.91s-.108.665-.134.841l-.048.321-1.047.021-1.047.021-.877-.021c-.483-.011-.88-.023-.883-.026a2.451 2.451 0 0 1 .037-.249c.023-.134.068-.368.1-.519s.089-.45.129-.664.086-.481.1-.592.048-.3.072-.412.07-.358.1-.539.066-.35.076-.376l.018-.046h-1.417l-.045.253c-.025.139-.058.337-.074.44s-.068.435-.117.737l-.16 1-.159 1c-.048.3-.127.77-.176 1.04l-.157.852-.159.838c-.05.262-.123.633-.162.823s-.082.412-.1.491-.058.309-.1.509-.074.386-.074.412v.047h.7zm7.77 0h.621l.018-.046a.541.541 0 0 0 .018-.146c0-.055.039-.344.087-.64l.175-1.074c.048-.294.121-.723.16-.953s.109-.614.155-.852l.157-.823c.04-.214.12-.623.176-.907s.11-.528.119-.542l.016-.025-.628.008-.628.008-.052.376c-.029.207-.092.616-.14.91l-.162 1c-.041.258-.112.664-.158.91l-.157.838c-.04.214-.113.591-.161.838s-.113.571-.144.722-.064.3-.074.339l-.018.065H24zm14.531 0h.617l.019-.261c.01-.144.045-.433.078-.643l.148-.931c.048-.302.139-.8.2-1.117s.132-.623.156-.69a.792.792 0 0 0 .043-.162 1.531 1.531 0 0 1 .1-.264 3.587 3.587 0 0 1 .235-.419l.132-.2.176-.163.176-.163.217-.1.217-.1h.664l.163.049c.09.027.171.049.181.049s.017-.031.017-.068.032-.228.072-.423.072-.363.072-.373a.769.769 0 0 0-.209-.082 2.641 2.641 0 0 0-.354-.082l-.144-.018-.188.033a2.425 2.425 0 0 0-.341.09 1.941 1.941 0 0 0-.31.156 2.231 2.231 0 0 0-.3.238 3.4 3.4 0 0 0-.289.34l-.19.26-.041.058.025-.116c.014-.064.052-.272.085-.462s.067-.369.076-.4l.015-.051h-1.1v.07c0 .038-.033.269-.072.513l-.146.905c-.041.254-.112.7-.159.982s-.119.7-.159.91l-.159.838-.174.9c-.048.251-.107.537-.129.646s-.041.21-.041.224v.025h.617zm14.64 0h.63v-.386l.073-.479c.04-.263.106-.68.147-.926l.113-.693c.022-.135.078-.428.125-.65s.107-.463.132-.534a.914.914 0 0 0 .046-.167 1.949 1.949 0 0 1 .119-.288l.119-.252.157-.209.157-.209.172-.129a2.5 2.5 0 0 1 .338-.21l.166-.08h.722l.142.046.142.046.024-.015.024-.015v-.092a3.766 3.766 0 0 1 .069-.419l.068-.327-.076-.03c-.042-.016-.141-.05-.22-.075l-.144-.045h-.52l-.212.075-.212.075-.159.1-.159.1-.207.217-.207.217-.111.168a.806.806 0 0 1-.12.159c0-.005.029-.2.074-.428s.083-.448.084-.484v-.065H53.6v.018c0 .01-.027.2-.059.412s-.1.634-.145.928-.125.768-.173 1.054-.119.7-.159.91l-.158.838-.171.881-.139.7-.053.267h.631zm-27.951-7.047h.175l.139-.047.139-.048.123-.125.123-.125.065-.167.065-.167v-.492l-.058-.1-.058-.1-.1-.062-.1-.062H25.3l-.148.066-.148.066-.086.092-.086.092-.067.159-.067.159-.013.247-.013.247.063.123.063.123.121.055.121.055h.175z" transform="translate(-10.5 -16.319)" style="fill:#b3131b"/>
</svg>
