<svg xmlns="http://www.w3.org/2000/svg" width="31.525" height="24.915" viewBox="0 0 41.525 24.915">
    <defs>
        <style>
            .prefix__cls-7{fill:#fff}.prefix__cls-8{fill:#dce5e5}
        </style>
    </defs>
    <g id="prefix__mastercard" transform="translate(0 -100.8)">
        <path id="prefix__Caminho_376" d="M226.515 113.257a12.457 12.457 0 0 1-24.915 0 12.457 12.457 0 1 1 24.915 0z" data-name="Caminho 376" transform="translate(-184.99)" style="fill:#ffb600"/>
        <path id="prefix__Caminho_377" d="M214.057 100.8a12.49 12.49 0 0 1 12.457 12.457 12.457 12.457 0 0 1-24.915 0" data-name="Caminho 377" transform="translate(-184.99)" style="fill:#f7981d"/>
        <path id="prefix__Caminho_378" d="M352.8 100.8a12.49 12.49 0 0 1 12.457 12.457 12.447 12.447 0 0 1-12.457 12.458" data-name="Caminho 378" transform="translate(-323.733)" style="fill:#ff8500"/>
        <path id="prefix__Caminho_379" d="M12.326 100.8a12.458 12.458 0 0 0 .132 24.915 12.6 12.6 0 0 0 8.371-3.23 11.842 11.842 0 0 0 1.252-1.318H19.51a15.2 15.2 0 0 1-.923-1.252H23a8.444 8.444 0 0 0 .725-1.318h-5.863a7.856 7.856 0 0 1-.527-1.318h6.855a13.088 13.088 0 0 0 .659-3.955 17.013 17.013 0 0 0-.264-2.636h-7.646a9.635 9.635 0 0 1 .33-1.318h6.855a7.855 7.855 0 0 0-.527-1.318H17.8a13.068 13.068 0 0 1 .725-1.318h4.416a6.268 6.268 0 0 0-.989-1.318H19.51a11.235 11.235 0 0 1 1.252-1.252 12.163 12.163 0 0 0-8.371-3.23c0-.134 0-.134-.065-.134z" data-name="Caminho 379" style="fill:#ff5050"/>
        <path id="prefix__Caminho_380" d="M0 114.726a12.447 12.447 0 0 0 12.457 12.457 12.6 12.6 0 0 0 8.371-3.23 11.846 11.846 0 0 0 1.252-1.318h-2.57a15.211 15.211 0 0 1-.923-1.252H23a8.444 8.444 0 0 0 .725-1.318h-5.863a7.857 7.857 0 0 1-.527-1.318h6.855a13.088 13.088 0 0 0 .659-3.955 17.014 17.014 0 0 0-.264-2.636h-7.646a9.635 9.635 0 0 1 .33-1.318h6.855a7.856 7.856 0 0 0-.527-1.318H17.8a13.071 13.071 0 0 1 .725-1.318h4.416a6.268 6.268 0 0 0-.989-1.318H19.51a11.233 11.233 0 0 1 1.252-1.252 12.163 12.163 0 0 0-8.371-3.23h-.066" data-name="Caminho 380" transform="translate(0 -1.468)" style="fill:#e52836"/>
        <path id="prefix__Caminho_381" d="M149.732 127.183a12.6 12.6 0 0 0 8.371-3.23 11.844 11.844 0 0 0 1.252-1.318h-2.571a15.206 15.206 0 0 1-.923-1.252h4.416a8.444 8.444 0 0 0 .725-1.318h-5.866a7.858 7.858 0 0 1-.527-1.318h6.855a13.088 13.088 0 0 0 .659-3.955 17.016 17.016 0 0 0-.264-2.636h-7.646a9.635 9.635 0 0 1 .33-1.318h6.857a7.851 7.851 0 0 0-.527-1.318h-5.8a13.07 13.07 0 0 1 .725-1.318h4.416a6.267 6.267 0 0 0-.989-1.318h-2.439a11.235 11.235 0 0 1 1.252-1.252 12.163 12.163 0 0 0-8.371-3.23h-.067" data-name="Caminho 381" transform="translate(-137.274 -1.468)" style="fill:#cb2026"/>
        <g id="prefix__Grupo_91" data-name="Grupo 91" transform="translate(1.186 110.028)">
            <path id="prefix__Caminho_382" d="M183.511 225.8l.2-1.121a2.855 2.855 0 0 1-.33.066c-.461 0-.527-.264-.461-.4l.4-2.307h.725l.2-1.252h-.659l.132-.791H182.4s-.791 4.35-.791 4.878a.989.989 0 0 0 1.046 1.127 2.024 2.024 0 0 0 .856-.2z" class="prefix__cls-7" data-name="Caminho 382" transform="translate(-167.824 -219.407)"/>
            <path id="prefix__Caminho_383" d="M210.4 231.673a2.1 2.1 0 0 0 2.307 2.307 3.422 3.422 0 0 0 1.384-.2l.264-1.252a3.951 3.951 0 0 1-1.384.33c-1.45 0-1.186-1.055-1.186-1.055h2.7a8.546 8.546 0 0 0 .2-1.186 1.786 1.786 0 0 0-1.911-1.911c-1.385-.131-2.374 1.319-2.374 2.967zm2.307-1.911c.725 0 .593.857.593.923h-1.45c0-.066.132-.923.857-.923z" class="prefix__cls-7" data-name="Caminho 383" transform="translate(-194.252 -227.389)"/>
            <path id="prefix__Caminho_384" d="M299.625 219.193l.264-1.45a3.239 3.239 0 0 1-1.12.33c-.923 0-1.318-.725-1.318-1.516 0-1.582.791-2.439 1.714-2.439a2.2 2.2 0 0 1 1.186.4l.2-1.384a4.635 4.635 0 0 0-1.516-.33c-1.516 0-3.032 1.318-3.032 3.823 0 1.648.791 2.768 2.373 2.768a5.915 5.915 0 0 0 1.249-.202z" class="prefix__cls-7" data-name="Caminho 384" transform="translate(-272.799 -212.8)"/>
            <path id="prefix__Caminho_385" d="M88.9 227.2a4.668 4.668 0 0 0-1.582.264l-.2 1.12a3.9 3.9 0 0 1 1.45-.264c.461 0 .857.066.857.461 0 .264-.066.33-.066.33h-.593c-1.121 0-2.373.461-2.373 1.977 0 1.186.791 1.45 1.252 1.45a1.981 1.981 0 0 0 1.384-.593l-.066.527h1.186l.527-3.625A1.562 1.562 0 0 0 88.9 227.2zm.264 2.966c0 .2-.132 1.252-.923 1.252a.514.514 0 0 1-.527-.527c0-.33.2-.791 1.186-.791a1.039 1.039 0 0 0 .268.066z" class="prefix__cls-7" data-name="Caminho 385" transform="translate(-80.468 -226.014)"/>
            <path id="prefix__Caminho_386" d="M136.716 231.8a1.689 1.689 0 0 0 1.977-1.714c0-1.648-1.582-1.318-1.582-1.977 0-.33.264-.461.725-.461.2 0 .923.066.923.066l.2-1.186a5.008 5.008 0 0 0-1.252-.132c-.989 0-1.977.4-1.977 1.714 0 1.516 1.648 1.384 1.648 1.977 0 .4-.461.461-.791.461a4.31 4.31 0 0 1-1.186-.2l-.2 1.186c.065.139.399.266 1.515.266z" class="prefix__cls-7" data-name="Caminho 386" transform="translate(-125.247 -225.28)"/>
            <path id="prefix__Caminho_387" d="M430.957 214.4l-.264 1.78a1.828 1.828 0 0 0-1.252-.659c-1.186 0-2.241 1.45-2.241 3.164 0 1.055.527 2.175 1.648 2.175a1.759 1.759 0 0 0 1.252-.527l-.066.461h1.318l.989-6.328zm-.593 3.493c0 .725-.33 1.648-1.055 1.648-.461 0-.725-.4-.725-1.055 0-1.055.461-1.714 1.055-1.714.461.001.725.328.725 1.121z" class="prefix__cls-7" data-name="Caminho 387" transform="translate(-393.189 -214.268)"/>
            <path id="prefix__Caminho_388" d="M15.652 220.728l.791-4.746.132 4.746h.925l1.714-4.746-.725 4.746h1.384l1.055-6.328H18.75l-1.318 3.889-.066-3.889h-1.911l-1.055 6.328z" class="prefix__cls-7" data-name="Caminho 388" transform="translate(-14.4 -214.268)"/>
            <path id="prefix__Caminho_389" d="M261.45 233.941c.4-2.175.461-3.955 1.384-3.625a5.17 5.17 0 0 1 .461-1.516h-.264c-.593 0-1.055.791-1.055.791l.132-.725h-1.252l-.856 5.141h1.45z" class="prefix__cls-7" data-name="Caminho 389" transform="translate(-239.765 -227.482)"/>
            <path id="prefix__Caminho_390" d="M348.9 227.2a4.668 4.668 0 0 0-1.582.264l-.2 1.12a3.9 3.9 0 0 1 1.45-.264c.461 0 .857.066.857.461 0 .264-.066.33-.066.33h-.593c-1.121 0-2.373.461-2.373 1.977 0 1.186.791 1.45 1.252 1.45a1.98 1.98 0 0 0 1.384-.593l-.066.527h1.186l.527-3.625a1.539 1.539 0 0 0-1.776-1.647zm.33 2.966c0 .2-.132 1.252-.923 1.252a.514.514 0 0 1-.527-.527c0-.33.2-.791 1.186-.791.202.066.202.066.268.066z" class="prefix__cls-7" data-name="Caminho 390" transform="translate(-319.046 -226.014)"/>
            <path id="prefix__Caminho_391" d="M395.85 233.941c.4-2.175.461-3.955 1.384-3.625a5.171 5.171 0 0 1 .461-1.516h-.264c-.593 0-1.055.791-1.055.791l.132-.725h-1.252l-.857 5.141h1.45z" class="prefix__cls-7" data-name="Caminho 391" transform="translate(-363.092 -227.482)"/>
        </g>
        <g id="prefix__Grupo_92" data-name="Grupo 92" transform="translate(1.186 110.028)">
            <path id="prefix__Caminho_392" d="M180 224.878a.989.989 0 0 0 1.055 1.12 2.509 2.509 0 0 0 .989-.2l.2-1.121a2.852 2.852 0 0 1-.33.066c-.461 0-.527-.264-.461-.4l.4-2.307h.725l.2-1.252h-.659l.132-.791" class="prefix__cls-8" data-name="Caminho 392" transform="translate(-166.356 -219.407)"/>
            <path id="prefix__Caminho_393" d="M218.4 231.673c0 1.846.593 2.307 1.648 2.307a3.422 3.422 0 0 0 1.384-.2l.264-1.252a3.951 3.951 0 0 1-1.384.33c-1.45 0-1.186-1.055-1.186-1.055h2.7a8.547 8.547 0 0 0 .2-1.186 1.786 1.786 0 0 0-1.911-1.911c-1.385-.131-1.715 1.319-1.715 2.967zm1.648-1.911c.725 0 .857.857.857.923h-1.714c0-.066.132-.923.857-.923z" class="prefix__cls-8" data-name="Caminho 393" transform="translate(-201.592 -227.389)"/>
            <path id="prefix__Caminho_394" d="M306.966 219.193l.264-1.45a3.239 3.239 0 0 1-1.12.33c-.923 0-1.318-.725-1.318-1.516 0-1.582.791-2.439 1.714-2.439a2.2 2.2 0 0 1 1.186.4l.2-1.384a4.634 4.634 0 0 0-1.516-.33c-1.516 0-2.373 1.318-2.373 3.823 0 1.648.132 2.768 1.714 2.768a5.914 5.914 0 0 0 1.249-.202z" class="prefix__cls-8" data-name="Caminho 394" transform="translate(-280.14 -212.8)"/>
            <path id="prefix__Caminho_395" d="M87.125 230.118a3.9 3.9 0 0 1 1.45-.264c.461 0 .857.066.857.461 0 .264-.066.33-.066.33h-.593c-1.121 0-2.373.461-2.373 1.977 0 1.186.791 1.45 1.252 1.45a1.981 1.981 0 0 0 1.384-.593l-.066.527h1.186l.527-3.625c0-1.516-1.318-1.582-1.846-1.582m.989 2.834a2.158 2.158 0 0 1-1.582 1.252.514.514 0 0 1-.527-.527c0-.33.2-.791 1.186-.791a5.384 5.384 0 0 0 .924.067z" class="prefix__cls-8" data-name="Caminho 395" transform="translate(-80.468 -227.482)"/>
            <path id="prefix__Caminho_396" d="M136 231.673a5.578 5.578 0 0 0 1.516.132 1.689 1.689 0 0 0 1.977-1.714c0-1.648-1.582-1.318-1.582-1.977 0-.33.264-.461.725-.461.2 0 .923.066.923.066l.2-1.186a5.007 5.007 0 0 0-1.252-.132c-.989 0-1.318.4-1.318 1.714 0 1.516.989 1.384.989 1.977 0 .4-.461.461-.791.461" class="prefix__cls-8" data-name="Caminho 396" transform="translate(-125.981 -225.28)"/>
            <path id="prefix__Caminho_397" d="M437.981 216.914a1.828 1.828 0 0 0-1.252-.659c-1.186 0-1.582 1.45-1.582 3.164 0 1.055-.132 2.175.989 2.175a1.759 1.759 0 0 0 1.252-.527l-.066.461h1.318l.989-6.328m-1.714 3.427c0 .725-.593 1.648-1.318 1.648-.461 0-.725-.4-.725-1.055 0-1.055.461-1.714 1.055-1.714a1.007 1.007 0 0 1 .988 1.121z" class="prefix__cls-8" data-name="Caminho 397" transform="translate(-400.477 -215.002)"/>
            <path id="prefix__Caminho_398" d="M15.652 220.728l.791-4.746.132 4.746h.925l1.714-4.746-.725 4.746h1.384l1.055-6.328h-1.65l-1.846 3.889-.066-3.889h-.725l-2.241 6.328z" class="prefix__cls-8" data-name="Caminho 398" transform="translate(-14.4 -214.268)"/>
            <path id="prefix__Caminho_399" d="M260.8 233.941h1.384c.4-2.175.461-3.955 1.384-3.625a5.172 5.172 0 0 1 .461-1.516h-.264c-.593 0-1.055.791-1.055.791l.132-.725" class="prefix__cls-8" data-name="Caminho 399" transform="translate(-240.499 -227.482)"/>
            <path id="prefix__Caminho_400" d="M347.125 230.118a3.9 3.9 0 0 1 1.45-.264c.461 0 .857.066.857.461 0 .264-.066.33-.066.33h-.593c-1.12 0-2.373.461-2.373 1.977 0 1.186.791 1.45 1.252 1.45a1.981 1.981 0 0 0 1.384-.593l-.066.527h1.186l.527-3.625c0-1.516-1.318-1.582-1.846-1.582m.989 2.834a2.158 2.158 0 0 1-1.582 1.252.514.514 0 0 1-.527-.527c0-.33.2-.791 1.186-.791a5.8 5.8 0 0 0 .924.067z" class="prefix__cls-8" data-name="Caminho 400" transform="translate(-319.046 -227.482)"/>
            <path id="prefix__Caminho_401" d="M395.2 233.941h1.384c.4-2.175.461-3.955 1.384-3.625a5.173 5.173 0 0 1 .461-1.516h-.264c-.593 0-1.055.791-1.055.791l.132-.725" class="prefix__cls-8" data-name="Caminho 401" transform="translate(-363.826 -227.482)"/>
        </g>
    </g>
</svg>
