<svg xmlns="http://www.w3.org/2000/svg" width="71.184" height="18.191" viewBox="0 0 71.184 18.191">
    <defs>
        <style>
            .prefix__cls-1{fill:#139ad6}.prefix__cls-2{fill:#263b80}
        </style>
    </defs>
    <g id="prefix__paypal" transform="translate(0 -187.6)">
        <path id="prefix__Caminho_316" d="M353.188 221.2h-3.842a.751.751 0 0 0-.565.452L347.2 231.6a.3.3 0 0 0 .339.339h2.034a.3.3 0 0 0 .339-.339l.452-2.825a.517.517 0 0 1 .565-.452h1.243q3.9 0 4.407-3.729a2.962 2.962 0 0 0-.452-2.486 4.557 4.557 0 0 0-2.938-.9m.452 3.729c-.226 1.356-1.243 1.356-2.26 1.356h-.681l.452-2.6c0-.113.113-.226.339-.226h.226c.678 0 1.356 0 1.695.452.226.113.226.452.226 1.017" class="prefix__cls-1" data-name="Caminho 316" transform="translate(-298.162 -28.854)"/>
        <g id="prefix__Grupo_322" data-name="Grupo 322" transform="translate(21.355 192.346)">
            <path id="prefix__Caminho_317" d="M157.188 221.2h-3.842a.751.751 0 0 0-.565.452L151.2 231.6a.3.3 0 0 0 .339.339h1.808a.751.751 0 0 0 .565-.452l.452-2.712a.517.517 0 0 1 .565-.452h1.243q3.9 0 4.407-3.729a2.962 2.962 0 0 0-.452-2.486 4.343 4.343 0 0 0-2.938-.9m.452 3.729c-.226 1.356-1.243 1.356-2.26 1.356h-.565l.452-2.6c0-.113.113-.226.339-.226h.226c.678 0 1.356 0 1.695.452a1.21 1.21 0 0 1 .113 1.017" class="prefix__cls-2" data-name="Caminho 317" transform="translate(-151.2 -221.2)"/>
            <path id="prefix__Caminho_318" d="M222.67 245.426h-1.808c-.113 0-.339.113-.339.226l-.113.565-.113-.226a2.658 2.658 0 0 0-2.147-.791 4.342 4.342 0 0 0-4.181 3.729 3.368 3.368 0 0 0 .678 2.825 2.847 2.847 0 0 0 2.373.9 3.611 3.611 0 0 0 2.6-1.017l-.113.565a.3.3 0 0 0 .339.339h1.695a.751.751 0 0 0 .565-.452l1.017-6.327c-.113-.113-.339-.339-.452-.339m-2.6 3.616a2.185 2.185 0 0 1-2.147 1.808 1.807 1.807 0 0 1-1.243-.452 2.41 2.41 0 0 1-.339-1.356 2.015 2.015 0 0 1 3.277-1.356 1.973 1.973 0 0 1 .452 1.356" class="prefix__cls-2" data-name="Caminho 318" transform="translate(-205.043 -241.81)"/>
        </g>
        <path id="prefix__Caminho_319" d="M417.87 245.426h-1.808c-.113 0-.339.113-.339.226l-.113.565-.113-.226a2.658 2.658 0 0 0-2.147-.791 4.342 4.342 0 0 0-4.181 3.729 3.368 3.368 0 0 0 .678 2.825 2.847 2.847 0 0 0 2.373.9 3.612 3.612 0 0 0 2.6-1.017l-.113.565a.3.3 0 0 0 .339.339h1.695a.751.751 0 0 0 .565-.452l1.017-6.327c-.113-.113-.226-.339-.452-.339m-2.6 3.616a2.185 2.185 0 0 1-2.147 1.808 1.807 1.807 0 0 1-1.243-.452 2.41 2.41 0 0 1-.339-1.356 2.015 2.015 0 0 1 3.277-1.356 1.3 1.3 0 0 1 .452 1.356" class="prefix__cls-1" data-name="Caminho 319" transform="translate(-351.319 -49.465)"/>
        <path id="prefix__Caminho_320" d="M292.7 246.8h-1.921a.587.587 0 0 0-.452.226l-2.486 3.842-1.13-3.616a.522.522 0 0 0-.565-.339h-1.808c-.226 0-.339.226-.339.452l2.034 5.988-1.921 2.712c-.113.226 0 .565.226.565h1.808a.587.587 0 0 0 .452-.226l6.214-8.926c.339-.339.113-.678-.113-.678" class="prefix__cls-2" data-name="Caminho 320" transform="translate(-243.889 -50.839)"/>
        <path id="prefix__Caminho_321" d="M476.782 221.956l-1.582 10.17a.3.3 0 0 0 .339.339h1.582a.751.751 0 0 0 .565-.452l1.582-9.943a.3.3 0 0 0-.339-.339h-1.808c-.113-.113-.226 0-.339.226" class="prefix__cls-1" data-name="Caminho 321" transform="translate(-408.084 -29.272)"/>
        <path id="prefix__Caminho_322" d="M12.994 188.956c-.791-.9-2.26-1.356-4.294-1.356H3.051a.969.969 0 0 0-.791.678L0 203.08a.517.517 0 0 0 .452.565h3.5l.9-5.536v.226a.969.969 0 0 1 .791-.678h1.701c3.277 0 5.762-1.356 6.553-5.085v-.339a3.946 3.946 0 0 0-.9-3.277" class="prefix__cls-2" data-name="Caminho 322"/>
        <path id="prefix__Caminho_323" d="M35.769 220.4v.339c-.791 3.842-3.277 5.085-6.553 5.085h-1.695a.969.969 0 0 0-.791.678l-1.13 6.892a.414.414 0 0 0 .452.452h2.938a.633.633 0 0 0 .678-.565v-.113l.565-3.5v-.226a.633.633 0 0 1 .678-.565h.452c2.825 0 5.085-1.13 5.649-4.52a4.154 4.154 0 0 0-.565-3.39 1.157 1.157 0 0 0-.678-.565" class="prefix__cls-1" data-name="Caminho 323" transform="translate(-21.984 -28.167)"/>
        <path id="prefix__Caminho_324" d="M42.535 215.939c-.113 0-.226-.113-.339-.113a.415.415 0 0 1-.339-.113 5.97 5.97 0 0 0-1.469-.113h-4.406a.415.415 0 0 0-.339.113.621.621 0 0 0-.339.565l-.9 5.875v.226a.969.969 0 0 1 .791-.678h1.695c3.277 0 5.762-1.356 6.553-5.085a.415.415 0 0 1 .113-.339c-.226-.113-.339-.226-.565-.226-.339-.113-.339-.113-.452-.113" data-name="Caminho 324" transform="translate(-29.541 -24.045)" style="fill:#232c65"/>
    </g>
</svg>
