<svg xmlns="http://www.w3.org/2000/svg" width="51.499" height="24.708" viewBox="0 0 81.499 24.708">
    <defs>
        <style>
            .prefix__cls-1{fill:#3c58bf}.prefix__cls-2{fill:#293688}.prefix__cls-6{fill:#051244}
        </style>
    </defs>
    <g id="prefix__visa" transform="translate(0 -175.6)">
        <path id="prefix__Caminho_361" d="M184.8 203.685l4.14-23.285h6.468l-4.01 23.285z" class="prefix__cls-1" data-name="Caminho 361" transform="translate(-154.917 -4.024)"/>
        <path id="prefix__Caminho_362" d="M184.8 203.685l5.3-23.285h5.3l-4.01 23.285z" class="prefix__cls-2" data-name="Caminho 362" transform="translate(-154.917 -4.024)"/>
        <path id="prefix__Caminho_363" d="M267.792 176.635a16.408 16.408 0 0 0-5.951-1.035c-6.468 0-11.125 3.234-11.125 7.891 0 3.493 3.234 5.3 5.821 6.468s3.363 1.94 3.363 2.975c0 1.552-2.07 2.329-3.881 2.329a14.061 14.061 0 0 1-6.209-1.294l-.906-.388-.906 5.3a20.976 20.976 0 0 0 7.374 1.294c6.856 0 11.384-3.234 11.384-8.15 0-2.717-1.682-4.786-5.562-6.468-2.328-1.164-3.752-1.811-3.752-2.975 0-1.035 1.164-2.07 3.752-2.07a11.865 11.865 0 0 1 4.916.906l.647.259 1.035-5.045z" class="prefix__cls-1" data-name="Caminho 363" transform="translate(-207.898)"/>
        <path id="prefix__Caminho_364" d="M267.792 176.635a16.408 16.408 0 0 0-5.951-1.035c-6.468 0-9.961 3.234-9.961 7.891 0 3.493 2.07 5.3 4.657 6.468s3.363 1.94 3.363 2.975c0 1.552-2.07 2.329-3.881 2.329a14.061 14.061 0 0 1-6.209-1.294l-.906-.388-.906 5.3a20.976 20.976 0 0 0 7.374 1.294c6.856 0 11.384-3.234 11.384-8.15 0-2.717-1.682-4.786-5.562-6.468-2.328-1.164-3.752-1.811-3.752-2.975 0-1.035 1.164-2.07 3.752-2.07a11.865 11.865 0 0 1 4.916.906l.647.259 1.035-5.045z" class="prefix__cls-2" data-name="Caminho 364" transform="translate(-207.898)"/>
        <path id="prefix__Caminho_365" d="M371.466 180.4c-1.552 0-2.717.129-3.363 1.682l-9.7 21.6h6.986l1.294-3.881h8.279l.776 3.881h6.209l-5.436-23.282zm-2.975 15.523c.388-1.164 2.587-6.856 2.587-6.856s.517-1.423.906-2.329l.388 2.2s1.294 5.821 1.552 7.115h-5.434z" class="prefix__cls-1" data-name="Caminho 365" transform="translate(-300.445 -4.024)"/>
        <path id="prefix__Caminho_366" d="M373.018 180.4c-1.552 0-2.717.129-3.363 1.682l-11.255 21.6h6.986l1.294-3.881h8.279l.776 3.881h6.209l-5.433-23.282zm-4.528 15.523c.518-1.294 2.587-6.856 2.587-6.856s.517-1.423.906-2.329l.388 2.2s1.294 5.821 1.552 7.115h-5.433z" class="prefix__cls-2" data-name="Caminho 366" transform="translate(-300.445 -4.024)"/>
        <path id="prefix__Caminho_367" d="M60.9 197.37l-.647-3.363c-1.164-3.881-4.916-8.15-9.055-10.22l5.821 20.7h6.986l10.48-23.287H67.5z" class="prefix__cls-1" data-name="Caminho 367" transform="translate(-42.921 -4.694)"/>
        <path id="prefix__Caminho_368" d="M60.9 197.37l-.647-3.363c-1.164-3.881-4.916-8.15-9.055-10.22l5.821 20.7h6.986l10.48-23.287h-5.692z" class="prefix__cls-2" data-name="Caminho 368" transform="translate(-42.921 -4.694)"/>
        <path id="prefix__Caminho_369" d="M0 180.4l1.164.259c8.279 1.94 13.971 6.856 16.17 12.678l-2.329-11c-.388-1.552-1.552-1.94-2.975-1.94z" data-name="Caminho 369" transform="translate(0 -4.024)" style="fill:#ffbc00"/>
        <path id="prefix__Caminho_370" d="M0 180.4c8.279 1.94 15.135 6.986 17.335 12.807l-2.2-9.185a3.158 3.158 0 0 0-3.1-2.458z" data-name="Caminho 370" transform="translate(0 -4.024)" style="fill:#f7981d"/>
        <path id="prefix__Caminho_371" d="M0 180.4c8.279 1.94 15.135 6.986 17.335 12.807l-1.552-5.045c-.388-1.552-.906-3.1-2.717-3.751z" data-name="Caminho 371" transform="translate(0 -4.024)" style="fill:#ed7c00"/>
        <g id="prefix__Grupo_90" data-name="Grupo 90" transform="translate(8.409 178.963)">
            <path id="prefix__Caminho_372" d="M68.041 209.336l-4.4-4.4-2.07 4.916-.517-3.234c-1.164-3.881-4.916-8.15-9.055-10.22l5.821 20.7h6.986z" class="prefix__cls-6" data-name="Caminho 372" transform="translate(-52 -196.4)"/>
            <path id="prefix__Caminho_373" d="M191.4 294.892l-5.563-5.692-1.035 5.692z" class="prefix__cls-6" data-name="Caminho 373" transform="translate(-163.326 -274.194)"/>
            <path id="prefix__Caminho_374" d="M259.255 274.8c.517.517.776.906.647 1.423 0 1.552-2.07 2.329-3.881 2.329a14.061 14.061 0 0 1-6.209-1.294l-.906-.388-.906 5.3a20.975 20.975 0 0 0 7.374 1.294c4.14 0 7.5-1.164 9.443-3.234z" class="prefix__cls-6" data-name="Caminho 374" transform="translate(-216.306 -262.122)"/>
            <path id="prefix__Caminho_375" d="M364 236.547h6.08l1.294-3.881h8.279l.776 3.881h6.209l-2.2-9.443-7.762-7.5.388 2.07s1.294 5.821 1.552 7.115h-5.433c.518-1.294 2.587-6.856 2.587-6.856s.517-1.423.906-2.328" class="prefix__cls-6" data-name="Caminho 375" transform="translate(-313.548 -215.848)"/>
        </g>
    </g>
</svg>
