<svg xmlns="http://www.w3.org/2000/svg" id="prefix__agenda" width="17.912" height="24.001" viewBox="0 0 17.912 24.001">
    <g id="prefix__Grupo_342" data-name="Grupo 342">
        <path id="prefix__Caminho_373" d="M61.137 0h-2.066v6.993c0 .491-.5.734-.882.117l-1.365-2.183-1.365 2.184c-.388.614-.882.374-.882-.117V0H47.65a3.038 3.038 0 0 0-3.03 3.038v17.934A3.038 3.038 0 0 0 47.65 24h13.49a1.4 1.4 0 0 0 1.392-1.392V1.395A1.4 1.4 0 0 0 61.137 0zm.263 20.4l-13.162.016a.576.576 0 0 0 0 1.149H61.4v1.059a.233.233 0 0 1-.237.237H47.65a1.877 1.877 0 0 1 0-3.753h13.506a.243.243 0 0 1 .24.24z" data-name="Caminho 373" transform="translate(-44.62)" style="fill:#484b4a"/>
    </g>
</svg>
