<svg xmlns="http://www.w3.org/2000/svg" width="44.893" height="37.703" viewBox="0 0 44.893 37.703">
    <defs>
        <style>
            .cls-1{fill:#fff}
        </style>
    </defs>
    <g id="ar-camera" transform="translate(0 -41)">
        <path id="Caminho_423" d="M40.071 46.261h-8.785l-.854-2.561a3.941 3.941 0 0 0-3.744-2.7H18.2a3.941 3.941 0 0 0-3.743 2.7l-.854 2.563h-2.117v-2.194A3.072 3.072 0 0 0 8.417 41H6.664a3.072 3.072 0 0 0-3.069 3.069v2.351A4.831 4.831 0 0 0 0 51.083v22.8A4.828 4.828 0 0 0 4.823 78.7h35.248a4.828 4.828 0 0 0 4.823-4.823v-22.8a4.828 4.828 0 0 0-4.823-4.816zM6.225 44.069a.439.439 0 0 1 .438-.438h1.754a.439.439 0 0 1 .438.438v2.192h-2.63zm36.038 29.812a2.195 2.195 0 0 1-2.192 2.192H4.823a2.195 2.195 0 0 1-2.193-2.192v-22.8a2.195 2.195 0 0 1 2.192-2.192h9.733a1.315 1.315 0 0 0 1.248-.9l1.154-3.462a1.314 1.314 0 0 1 1.248-.9h8.484a1.313 1.313 0 0 1 1.248.9l1.154 3.462a1.315 1.315 0 0 0 1.248.9h9.733a2.195 2.195 0 0 1 2.192 2.192z" class="cls-1" data-name="Caminho 423"/>
        <circle id="Elipse_13" cx="1.5" cy="1.5" r="1.5" class="cls-1" data-name="Elipse 13" transform="translate(36 51)"/>
        <path id="Caminho_424" d="M64.946 161h-2.63a1.315 1.315 0 1 0 0 2.63h2.63a1.315 1.315 0 1 0 0-2.63z" class="cls-1" data-name="Caminho 424" transform="translate(-55.651 -109.478)"/>
        <g id="Grupo_376" data-name="Grupo 376" transform="translate(10.61 49.768)">
            <path id="Caminho_425" d="M132.837 164.674a11.837 11.837 0 1 1 11.837-11.837 11.851 11.851 0 0 1-11.837 11.837zm0-21.044a9.207 9.207 0 1 0 9.207 9.207 9.217 9.217 0 0 0-9.207-9.207z" class="cls-1" data-name="Caminho 425" transform="translate(-121 -141)"/>
        </g>
        <g id="Grupo_377" data-name="Grupo 377" transform="translate(15.87 55.029)">
            <path id="Caminho_426" d="M187.576 214.152a6.576 6.576 0 1 1 6.576-6.576 6.584 6.584 0 0 1-6.576 6.576zm0-10.522a3.946 3.946 0 1 0 3.946 3.946 3.95 3.95 0 0 0-3.946-3.946z" class="cls-1" data-name="Caminho 426" transform="translate(-181 -201)"/>
        </g>
    </g>
</svg>
