<svg xmlns="http://www.w3.org/2000/svg" id="prefix__facebook" width="22.727" height="22.727" viewBox="0 0 22.727 22.727">
    <g id="prefix__Grupo_324" data-name="Grupo 324">
        <path id="prefix__Caminho_336" d="M19.886 0H2.841A2.844 2.844 0 0 0 0 2.841v17.045a2.844 2.844 0 0 0 2.841 2.841h8.523v-7.812H8.523v-3.551h2.841V8.523a4.261 4.261 0 0 1 4.261-4.261h2.841v3.551h-1.42c-.784 0-1.42-.074-1.42.71v2.841h3.551l-1.42 3.551h-2.132v7.813h4.261a2.844 2.844 0 0 0 2.841-2.841V2.841A2.844 2.844 0 0 0 19.886 0z" data-name="Caminho 336" style="fill:#a28775"/>
    </g>
</svg>
