<svg xmlns="http://www.w3.org/2000/svg" id="legal" width="40.798" height="40.798" viewBox="0 0 40.798 40.798">
    <path id="Caminho_421" fill="none" d="M0 0h40.8v40.8H0z" data-name="Caminho 421"/>
    <path id="Caminho_422" fill="#00c8b8" d="M24.119 13.153H35a3.4 3.4 0 0 1 3.4 3.4v3.577a3.4 3.4 0 0 1-.255 1.3L32.882 34.2a1.7 1.7 0 0 1-1.572 1.052H2.7a1.7 1.7 0 0 1-1.7-1.7v-17a1.7 1.7 0 0 1 1.7-1.7h5.919a1.7 1.7 0 0 0 1.389-.719L19.277 1a.85.85 0 0 1 1.074-.27l3.084 1.54a4.25 4.25 0 0 1 2.218 4.85zM11.2 17.552v14.3h18.97L35 20.129v-3.577H24.119a3.4 3.4 0 0 1-3.294-4.238l1.535-6.031a.85.85 0 0 0-.444-.971l-1.124-.561-8.007 11.342a5.128 5.128 0 0 1-1.585 1.459zm-3.4.7H4.4v13.6h3.4z" data-name="Caminho 422" transform="translate(.7 .447)"/>
</svg>
