<?xml version="1.0" ?><!DOCTYPE svg  PUBLIC '-//W3C//DTD SVG 1.1//EN'  'http://www.w3.org/Graphics/SVG/1.1/DTD/svg11.dtd'><svg height="100%" style="fill-rule:evenodd;clip-rule:evenodd;stroke-linejoin:round;stroke-miterlimit:1.41421;" version="1.1" viewBox="0 0 20 20" width="100%" xml:space="preserve" xmlns="http://www.w3.org/2000/svg" xmlns:serif="http://www.serif.com/" xmlns:xlink="http://www.w3.org/1999/xlink"><rect height="24" id="Artboard6" style="fill:none;" width="24" x="0" y="0"/><path d="M22,4c0,-0.53 -0.211,-1.039 -0.586,-1.414c-0.375,-0.375 -0.884,-0.586 -1.414,-0.586c-3.832,0 -12.168,0 -16,0c-0.53,0 -1.039,0.211 -1.414,0.586c-0.375,0.375 -0.586,0.884 -0.586,1.414c0,3.832 0,12.168 0,16c0,0.53 0.211,1.039 0.586,1.414c0.375,0.375 0.884,0.586 1.414,0.586c3.832,0 12.168,0 16,0c0.53,0 1.039,-0.211 1.414,-0.586c0.375,-0.375 0.586,-0.884 0.586,-1.414c0,-3.832 0,-12.168 0,-16Z" style="fill:#3b5998;"/><path d="M18.914,8.172c0,0 -1.262,0 -2.202,0c-0.553,0 -1.001,0.448 -1.001,1.001c0,0.883 0,2.032 0,2.032l3.203,0l-0.781,3.047l-2.422,0l0,7.748l-3.047,0l0,-7.748l-2.656,0l0,-3.047l2.656,0c0,0 0,-0.94 0,-2.08c0,-1.061 0.422,-2.078 1.172,-2.828c0.75,-0.751 1.767,-1.172 2.828,-1.172c1.222,0 2.25,0 2.25,0l0,3.047Z" style="fill:#fff;"/></svg>