<svg xmlns="http://www.w3.org/2000/svg" width="22.655" height="25.906" viewBox="0 0 22.655 25.906">
    <g id="prefix__sacola" transform="translate(-32.124)">
        <g id="prefix__Grupo_327" data-name="Grupo 327" transform="translate(32.124)">
            <path id="prefix__Caminho_346" d="M54.776 25.081L53.964.734A.759.759 0 0 0 53.206 0H33.7a.759.759 0 0 0-.759.734l-.813 24.388a.759.759 0 0 0 .759.784H54.02a.759.759 0 0 0 .759-.759c0-.022-.001-.047-.003-.066zM43.451 11.273a5.643 5.643 0 0 1-5.636-5.636.759.759 0 1 1 1.518 0 4.119 4.119 0 1 0 8.237 0 .759.759 0 0 1 1.518 0 5.643 5.643 0 0 1-5.637 5.636z" data-name="Caminho 346" transform="translate(-32.124)" style="fill:#2b2b2b"/>
        </g>
    </g>
</svg>
