<svg xmlns="http://www.w3.org/2000/svg" width="17.293" height="19.774" viewBox="0 0 17.293 19.774">
    <g id="prefix__sacola" transform="translate(-32.124)">
        <g id="prefix__Grupo_327" data-name="Grupo 327" transform="translate(32.124)">
            <path id="prefix__Caminho_346" d="M49.415 19.145L48.8.56a.579.579 0 0 0-.584-.56H33.324a.579.579 0 0 0-.579.56l-.62 18.616a.579.579 0 0 0 .579.6h16.133a.579.579 0 0 0 .579-.579c.001-.019 0-.035-.001-.052zM40.77 8.6a4.307 4.307 0 0 1-4.3-4.3.579.579 0 1 1 1.159 0 3.144 3.144 0 1 0 6.288 0 .579.579 0 0 1 1.159 0 4.307 4.307 0 0 1-4.306 4.3z" data-name="Caminho 346" transform="translate(-32.124)" style="fill:#9e9e9e"/>
        </g>
    </g>
</svg>
