<svg xmlns="http://www.w3.org/2000/svg" width="15.757" height="15.757" viewBox="0 0 15.757 15.757">
    <defs>
        <style>
            .cls-1{fill:#ffffff}
        </style>
    </defs>
    <g id="settings">
        <path id="Caminho_416" d="M7.879 15.757a1.725 1.725 0 0 1-1.723-1.723v-.5a5.852 5.852 0 0 1-1.056-.439l-.355.355a1.723 1.723 0 1 1-2.437-2.437l.355-.355A5.856 5.856 0 0 1 2.225 9.6h-.5a1.723 1.723 0 0 1 0-3.447h.5A5.852 5.852 0 0 1 2.662 5.1l-.355-.355a1.723 1.723 0 1 1 2.438-2.438l.355.355a5.855 5.855 0 0 1 1.055-.437v-.5A1.724 1.724 0 0 1 7.879 0a1.748 1.748 0 0 1 .343.034A1.729 1.729 0 0 1 9.6 1.723v.5a5.852 5.852 0 0 1 1.055.437l.355-.355a1.723 1.723 0 1 1 2.44 2.44l-.355.355a5.855 5.855 0 0 1 .437 1.055h.5a1.723 1.723 0 0 1 0 3.447h-.5a5.852 5.852 0 0 1-.437 1.055l.355.355a1.724 1.724 0 0 1-2.437 2.437l-.355-.355a5.854 5.854 0 0 1-1.055.437v.5a1.725 1.725 0 0 1-1.379 1.689 1.748 1.748 0 0 1-.343.034zm.246-.517zm-3.106-3.253a.491.491 0 0 1 .26.074 4.881 4.881 0 0 0 1.48.613.492.492 0 0 1 .381.48v.879a.739.739 0 0 0 .739.739.76.76 0 0 0 .148-.015.74.74 0 0 0 .59-.724v-.879A.492.492 0 0 1 9 12.675a4.881 4.881 0 0 0 1.48-.613.492.492 0 0 1 .608.07l.622.622a.739.739 0 0 0 1.045-1.045l-.622-.622a.492.492 0 0 1-.07-.608A4.881 4.881 0 0 0 12.675 9a.492.492 0 0 1 .48-.381h.879a.739.739 0 0 0 0-1.477h-.879a.492.492 0 0 1-.48-.381 4.88 4.88 0 0 0-.613-1.48.492.492 0 0 1 .07-.608l.622-.622A.739.739 0 0 0 11.709 3l-.622.622a.492.492 0 0 1-.608.07A4.881 4.881 0 0 0 9 3.082a.492.492 0 0 1-.381-.48v-.879A.74.74 0 0 0 8.027 1a.759.759 0 0 0-.148-.015.739.739 0 0 0-.739.739V2.6a.492.492 0 0 1-.381.48 4.881 4.881 0 0 0-1.48.613.492.492 0 0 1-.608-.07L4.048 3A.739.739 0 0 0 3 4.048l.622.622a.492.492 0 0 1 .07.608 4.881 4.881 0 0 0-.613 1.48.492.492 0 0 1-.48.381h-.876a.739.739 0 0 0 0 1.477H2.6A.492.492 0 0 1 3.082 9a4.88 4.88 0 0 0 .613 1.48.492.492 0 0 1-.07.608L3 11.709a.739.739 0 0 0 1.045 1.045l.622-.622a.492.492 0 0 1 .348-.144z" class="cls-1" data-name="Caminho 416"/>
        <path id="Caminho_417" d="M147.447 150.894a3.447 3.447 0 1 1 0-6.894c.1 0 .2 0 .289.012a3.447 3.447 0 0 1 0 6.869c-.094.009-.191.013-.289.013zm0-5.909a2.462 2.462 0 1 0 0 4.924c.069 0 .138 0 .2-.009a2.462 2.462 0 0 0 0-4.907c-.062-.005-.131-.008-.2-.008z" class="cls-1" data-name="Caminho 417" transform="translate(-139.568 -139.568)"/>
    </g>
</svg>
