<svg xmlns="http://www.w3.org/2000/svg" width="26.211" height="26.211" viewBox="0 0 26.211 26.211">
    <path id="prefix__user" d="M22.372 3.838A13.105 13.105 0 0 0 3.838 22.372 13.105 13.105 0 0 0 22.372 3.838zM6.57 22.647a6.636 6.636 0 0 1 13.071 0 11.544 11.544 0 0 1-13.071 0zM8.938 11.46a4.167 4.167 0 1 1 4.162 4.167 4.172 4.172 0 0 1-4.162-4.167zM20.97 21.582a8.185 8.185 0 0 0-4.758-5.342 5.7 5.7 0 1 0-6.215 0 8.184 8.184 0 0 0-4.758 5.342 11.569 11.569 0 1 1 15.731 0zm0 0" style="fill:#643345"/>
</svg>
