<svg xmlns="http://www.w3.org/2000/svg" id="ver-salao" width="23.967" height="23.967" viewBox="0 0 23.967 23.967">
    <path id="Caminho_68" fill="#636464" d="M21.857 0H2.109A2.112 2.112 0 0 0 0 2.109v15.749a2.112 2.112 0 0 0 2.109 2.109H11V22H6.984a.984.984 0 1 0 0 1.969h10a.984.984 0 1 0 0-1.969h-4.016v-2.033h8.89a2.112 2.112 0 0 0 2.109-2.109V2.109A2.112 2.112 0 0 0 21.857 0zM22 17.858a.141.141 0 0 1-.141.141H2.109a.141.141 0 0 1-.141-.141V2.109a.141.141 0 0 1 .141-.141h19.748a.141.141 0 0 1 .143.141z" data-name="Caminho 68"/>
</svg>
