<svg xmlns="http://www.w3.org/2000/svg" id="prefix__youtube" width="30.12" height="22.813" viewBox="0 0 30.12 22.813">
    <defs>
        <style>
            .prefix__cls-1{fill:#a28775}
        </style>
    </defs>
    <path id="prefix__Caminho_334" d="M220.949 148.286l4.973-2.674-4.973-2.721zm0 0" class="prefix__cls-1" data-name="Caminho 334" transform="translate(-207.951 -134.484)"/>
    <path id="prefix__Caminho_335" d="M29.9 5.384V5.37a6.887 6.887 0 0 0-1.328-3.5 4.9 4.9 0 0 0-3.25-1.517l-.15-.018-.052-.006C21.138.04 15.124 0 15.064 0h-.011c-.06 0-6.074.04-10.091.33l-.053.005-.141.017a4.778 4.778 0 0 0-3.227 1.569A7.22 7.22 0 0 0 .224 5.353v.031C.212 5.485 0 7.887 0 10.3v2.254c0 2.411.213 4.813.222 4.913v.015a6.821 6.821 0 0 0 1.323 3.452 5 5 0 0 0 3.355 1.5c.122.014.228.026.3.039l.07.009c2.3.219 9.507.327 9.813.331h.017c.06 0 6.074-.04 10.056-.33l.053-.005.169-.019a4.668 4.668 0 0 0 3.2-1.53 7.22 7.22 0 0 0 1.316-3.429v-.031c.009-.1.222-2.5.222-4.913V10.3c0-2.411-.213-4.812-.222-4.913zm-10.21 6.823l-6.654 3.578a1.222 1.222 0 0 1-1.8-1.076V7.49a1.222 1.222 0 0 1 1.809-1.072l6.654 3.641a1.222 1.222 0 0 1-.008 2.149zm0 0" class="prefix__cls-1" data-name="Caminho 335" transform="translate(.001)"/>
</svg>
