<svg xmlns="http://www.w3.org/2000/svg" width="16.056" height="23.106" viewBox="0 0 16.056 23.106">
    <defs>
        <style>
            .prefix__cls-1{fill:#d64366}
        </style>
    </defs>
    <g id="prefix__delete">
        <path id="prefix__Caminho_373" d="M14.7 2.612h-2.472v-.13A2.485 2.485 0 0 0 9.746 0H6.31a2.485 2.485 0 0 0-2.482 2.482v.13H1.354A1.354 1.354 0 0 0 0 3.966V5a.451.451 0 0 0 .451.451H15.6A.451.451 0 0 0 16.056 5V3.966A1.354 1.354 0 0 0 14.7 2.612zm-9.52-.13a1.129 1.129 0 0 1 1.13-1.128h3.436a1.129 1.129 0 0 1 1.128 1.128v.13H5.182zm0 0" class="prefix__cls-1" data-name="Caminho 373"/>
        <path id="prefix__Caminho_374" d="M12.949 150.738l1.094 15.673a.677.677 0 0 0 .675.63h11.349a.677.677 0 0 0 .675-.63l1.094-15.673zm4.765 14h-.029a.677.677 0 0 1-.676-.648l-.451-10.605a.677.677 0 1 1 1.353-.057l.451 10.605a.677.677 0 0 1-.648.7zm3.356-.676a.677.677 0 1 1-1.354 0v-10.604a.677.677 0 1 1 1.354 0zm2.707.029a.677.677 0 0 1-.676.648h-.029a.677.677 0 0 1-.648-.705l.451-10.605a.677.677 0 0 1 1.353.057zm0 0" class="prefix__cls-1" data-name="Caminho 374" transform="translate(-12.365 -143.935)"/>
    </g>
</svg>
