<svg xmlns="http://www.w3.org/2000/svg" width="19.223" height="16.971" viewBox="0 0 22.223 16.971">
    <g id="prefix__email" transform="translate(0 -60.5)">
        <g id="prefix__Grupo_330" data-name="Grupo 330" transform="translate(0 60.5)">
            <path id="prefix__Caminho_350" d="M21.355 70.526a.868.868 0 0 0 .868-.868v-5.686a3.476 3.476 0 0 0-3.472-3.472H3.472A3.476 3.476 0 0 0 0 63.972V74a3.476 3.476 0 0 0 3.472 3.472h15.279A3.476 3.476 0 0 0 22.223 74a.868.868 0 1 0-1.736 0 1.738 1.738 0 0 1-1.736 1.736H3.472A1.738 1.738 0 0 1 1.736 74v-9.844l7.542 4.69a3.451 3.451 0 0 0 3.667 0l7.542-4.69v5.5a.868.868 0 0 0 .868.87zm-9.327-3.155a1.725 1.725 0 0 1-1.834 0l-7.733-4.809a1.727 1.727 0 0 1 1.012-.326h15.278a1.727 1.727 0 0 1 1.012.326z" data-name="Caminho 350" transform="translate(0 -60.5)" style="fill:#643345"/>
        </g>
    </g>
</svg>
