<svg xmlns="http://www.w3.org/2000/svg" id="prefix__instagram" width="22.619" height="22.619" viewBox="0 0 22.619 22.619">
    <defs>
        <style>
            .prefix__cls-1{fill:#a28775}
        </style>
    </defs>
    <path id="prefix__Caminho_331" d="M16.5 0H6.122A6.13 6.13 0 0 0 0 6.123V16.5a6.13 6.13 0 0 0 6.123 6.123H16.5a6.13 6.13 0 0 0 6.118-6.123V6.123A6.13 6.13 0 0 0 16.5 0zm-5.191 17.494a6.185 6.185 0 1 1 6.185-6.185 6.192 6.192 0 0 1-6.185 6.185zm6.332-10.911a1.828 1.828 0 1 1 1.828-1.828 1.829 1.829 0 0 1-1.828 1.828zm0 0" class="prefix__cls-1" data-name="Caminho 331" transform="translate(.001)"/>
    <path id="prefix__Caminho_332" d="M150.879 146.02a4.859 4.859 0 1 0 4.859 4.859 4.864 4.864 0 0 0-4.859-4.859zm0 0" class="prefix__cls-1" data-name="Caminho 332" transform="translate(-139.569 -139.569)"/>
    <path id="prefix__Caminho_333" d="M388.494 96.3a.5.5 0 1 0 .5.5.5.5 0 0 0-.5-.5zm0 0" class="prefix__cls-1" data-name="Caminho 333" transform="translate(-370.852 -92.046)"/>
</svg>
