<svg xmlns="http://www.w3.org/2000/svg" width="83.804" height="95.829" viewBox="0 0 83.804 95.829">
    <g id="prefix__sacola" transform="translate(-32.124)">
        <g id="prefix__Grupo_327" data-name="Grupo 327" transform="translate(32.124)">
            <path id="prefix__Caminho_346" d="M115.917 92.78l-3-90.066A2.808 2.808 0 0 0 110.109 0H37.938a2.807 2.807 0 0 0-2.806 2.714l-3.007 90.213a2.808 2.808 0 0 0 2.806 2.9h78.189a2.808 2.808 0 0 0 2.807-2.807c.001-.08-.003-.161-.01-.24zM74.024 41.7a20.874 20.874 0 0 1-20.85-20.85 2.807 2.807 0 1 1 5.615 0 15.235 15.235 0 1 0 30.47 0 2.807 2.807 0 0 1 5.615 0 20.874 20.874 0 0 1-20.85 20.85z" data-name="Caminho 346" transform="translate(-32.124)" style="fill:#9e9e9e"/>
        </g>
    </g>
</svg>
