<svg xmlns="http://www.w3.org/2000/svg" width="49.662" height="30.239" viewBox="0 0 49.662 30.239">
    <g id="prefix__dinheiro" transform="translate(0 -91.208)">
        <g id="prefix__Grupo_369" data-name="Grupo 369" transform="translate(0 91.208)">
            <path id="prefix__Caminho_414" d="M49.49 114.4a1.051 1.051 0 0 0-1.469-.287l-7.943 5.207H29.621v-4.365H40.4a1.055 1.055 0 0 0 .618-.213l8.2-5.92a1.06 1.06 0 1 0-1.246-1.714l-7.911 5.718h-10.44v-4.476H40.4a1.054 1.054 0 0 0 .66-.2l8.2-6.463A1.069 1.069 0 0 0 47.935 100l-7.911 6.218h-10.4v-4.259H40.4a1.134 1.134 0 0 0 .724-.3l8.2-7.6a1.106 1.106 0 0 0 .266-1.193 1.1 1.1 0 0 0-.99-.7H38.438c-.011 0-.032-.192-.064-.277a1.074 1.074 0 0 0-.99-.681H21.093a1.07 1.07 0 0 0-.724.287l-.713.671H9.263a1.092 1.092 0 0 0-.724.309l-8.2 7.592a1.106 1.106 0 0 0-.266 1.193 1.094 1.094 0 0 0 .99.7H11.2v4.259H1.065a1.065 1.065 0 1 0 0 2.13H11.2v4.472H1.065a1.065 1.065 0 1 0 0 2.13H11.2v4.365H1.065a1.065 1.065 0 1 0 0 2.13H40.4a1.05 1.05 0 0 0 .586-.2l8.2-5.366a1.076 1.076 0 0 0 .304-1.48zm-12.7-20.06c.011 0 .021-.043.043-.043h9.05l-5.9 5.537H30.92zM11.5 99.832H3.78l5.9-5.537h7.688l-5.814 5.452c-.023.011-.033-.021-.054.085zm12.756 7.038a1.065 1.065 0 0 1-2.13-.021 1.759 1.759 0 0 0-1.757-1.757h-.021a1.757 1.757 0 1 0 .021 3.514 3.881 3.881 0 0 1 3.886 3.886 3.945 3.945 0 0 1-2.832 3.737v.692a1.065 1.065 0 0 1-2.13 0v-.692a3.923 3.923 0 0 1-2.822-3.737 1.065 1.065 0 0 1 2.13 0 1.757 1.757 0 1 0 1.757-1.757 3.886 3.886 0 0 1-1.065-7.624v-.692a1.065 1.065 0 0 1 2.13 0v.692a3.932 3.932 0 0 1 2.832 3.737z" data-name="Caminho 414" transform="translate(0 -91.208)" style="fill:#25af65"/>
        </g>
    </g>
</svg>
