<svg xmlns="http://www.w3.org/2000/svg" width="50.631" height="30.379" viewBox="0 0 50.631 30.379">
    <defs>
        <style>
            .prefix__cls-7{fill:#fff}.prefix__cls-8{fill:#dce5e5}
        </style>
    </defs>
    <g id="prefix__mastercard" transform="translate(0 -100.8)">
        <path id="prefix__Caminho_193" d="M231.979 115.989a15.189 15.189 0 1 1-30.379 0 15.189 15.189 0 1 1 30.379 0z" data-name="Caminho 193" transform="translate(-181.348)" style="fill:#ffb600"/>
        <path id="prefix__Caminho_194" d="M216.789 100.8a15.229 15.229 0 0 1 15.189 15.189 15.189 15.189 0 1 1-30.379 0" data-name="Caminho 194" transform="translate(-181.348)" style="fill:#f7981d"/>
        <path id="prefix__Caminho_195" d="M352.8 100.8a15.229 15.229 0 0 1 15.189 15.189 15.177 15.177 0 0 1-15.189 15.19" data-name="Caminho 195" transform="translate(-317.358)" style="fill:#ff8500"/>
        <path id="prefix__Caminho_196" d="M15.029 100.8a15.19 15.19 0 0 0 .161 30.379 15.366 15.366 0 0 0 10.21-3.938 14.441 14.441 0 0 0 1.527-1.607h-3.138a18.54 18.54 0 0 1-1.125-1.527h5.385a10.3 10.3 0 0 0 .884-1.607H21.78a9.579 9.579 0 0 1-.643-1.607h8.358a15.958 15.958 0 0 0 .8-4.822 20.745 20.745 0 0 0-.321-3.215h-9.32a11.749 11.749 0 0 1 .4-1.607h8.358a9.579 9.579 0 0 0-.643-1.607H21.7a15.94 15.94 0 0 1 .884-1.607h5.385a7.643 7.643 0 0 0-1.206-1.607h-2.974a13.7 13.7 0 0 1 1.527-1.527 14.83 14.83 0 0 0-10.207-3.938c0-.163 0-.163-.08-.163z" data-name="Caminho 196" style="fill:#ff5050"/>
        <path id="prefix__Caminho_197" d="M0 117.429a15.177 15.177 0 0 0 15.189 15.189A15.366 15.366 0 0 0 25.4 128.68a14.441 14.441 0 0 0 1.527-1.607h-3.138a18.535 18.535 0 0 1-1.125-1.527h5.385a10.294 10.294 0 0 0 .884-1.607H21.78a9.579 9.579 0 0 1-.643-1.607h8.358a15.958 15.958 0 0 0 .8-4.822 20.745 20.745 0 0 0-.321-3.215h-9.32a11.747 11.747 0 0 1 .4-1.607h8.358a9.579 9.579 0 0 0-.643-1.607H21.7a15.937 15.937 0 0 1 .884-1.607h5.385a7.643 7.643 0 0 0-1.206-1.607h-2.974a13.7 13.7 0 0 1 1.527-1.527 14.83 14.83 0 0 0-10.207-3.94h-.08" data-name="Caminho 197" transform="translate(0 -1.439)" style="fill:#e52836"/>
        <path id="prefix__Caminho_198" d="M149.761 132.618a15.366 15.366 0 0 0 10.207-3.938 14.442 14.442 0 0 0 1.527-1.607h-3.135a18.531 18.531 0 0 1-1.125-1.527h5.385a10.293 10.293 0 0 0 .884-1.607h-7.153a9.579 9.579 0 0 1-.643-1.607h8.358a15.959 15.959 0 0 0 .8-4.822 20.744 20.744 0 0 0-.321-3.215h-9.323a11.741 11.741 0 0 1 .4-1.607h8.358a9.58 9.58 0 0 0-.643-1.607h-7.067a15.932 15.932 0 0 1 .884-1.607h5.385a7.643 7.643 0 0 0-1.206-1.607h-2.973a13.7 13.7 0 0 1 1.527-1.527 14.83 14.83 0 0 0-10.207-3.94h-.08" data-name="Caminho 198" transform="translate(-134.571 -1.439)" style="fill:#cb2026"/>
        <g id="prefix__Grupo_308" data-name="Grupo 308" transform="translate(1.447 112.051)">
            <path id="prefix__Caminho_199" d="M183.931 227.072l.241-1.366a3.479 3.479 0 0 1-.4.08c-.563 0-.643-.321-.563-.482l.482-2.813h.884l.241-1.527h-.8l.161-.964h-1.607s-.964 5.3-.964 5.947a1.206 1.206 0 0 0 1.286 1.366 2.468 2.468 0 0 0 1.039-.241z" class="prefix__cls-7" data-name="Caminho 199" transform="translate(-164.803 -219.277)"/>
            <path id="prefix__Caminho_200" d="M210.4 232.325a2.556 2.556 0 0 0 2.813 2.813 4.173 4.173 0 0 0 1.688-.241l.321-1.527a4.818 4.818 0 0 1-1.688.4c-1.768 0-1.447-1.286-1.447-1.286h3.3a10.419 10.419 0 0 0 .241-1.447 2.177 2.177 0 0 0-2.331-2.331c-1.692-.158-2.897 1.61-2.897 3.619zm2.813-2.331c.884 0 .723 1.045.723 1.125h-1.768c0-.079.161-1.124 1.045-1.124z" class="prefix__cls-7" data-name="Caminho 200" transform="translate(-190.71 -227.102)"/>
            <path id="prefix__Caminho_201" d="M300.42 220.6l.321-1.768a3.949 3.949 0 0 1-1.366.4c-1.125 0-1.607-.884-1.607-1.848 0-1.929.964-2.974 2.09-2.974a2.684 2.684 0 0 1 1.447.482l.241-1.688a5.65 5.65 0 0 0-1.848-.4c-1.848 0-3.7 1.607-3.7 4.661 0 2.009.964 3.375 2.893 3.375a7.213 7.213 0 0 0 1.529-.24z" class="prefix__cls-7" data-name="Caminho 201" transform="translate(-267.711 -212.8)"/>
            <path id="prefix__Caminho_202" d="M89.454 227.2a5.692 5.692 0 0 0-1.929.321l-.241 1.366a4.751 4.751 0 0 1 1.768-.321c.563 0 1.045.08 1.045.563 0 .322-.08.4-.08.4h-.723c-1.366 0-2.893.563-2.893 2.411 0 1.447.964 1.768 1.527 1.768a2.415 2.415 0 0 0 1.688-.723l-.08.643h1.447l.643-4.42a1.9 1.9 0 0 0-2.172-2.008zm.321 3.617c0 .241-.161 1.527-1.125 1.527a.627.627 0 0 1-.643-.643c0-.4.241-.964 1.447-.964a1.267 1.267 0 0 0 .321.08z" class="prefix__cls-7" data-name="Caminho 202" transform="translate(-79.167 -225.753)"/>
            <path id="prefix__Caminho_203" d="M137.048 232.99a2.06 2.06 0 0 0 2.411-2.09c0-2.009-1.929-1.607-1.929-2.411 0-.4.321-.563.884-.563.241 0 1.125.08 1.125.08l.241-1.447a6.1 6.1 0 0 0-1.527-.161c-1.205 0-2.411.482-2.411 2.09 0 1.848 2.009 1.688 2.009 2.411 0 .482-.563.563-.964.563a5.255 5.255 0 0 1-1.447-.241l-.241 1.447c.081.161.483.322 1.849.322z" class="prefix__cls-7" data-name="Caminho 203" transform="translate(-123.065 -225.034)"/>
            <path id="prefix__Caminho_204" d="M431.781 214.4l-.321 2.17a2.228 2.228 0 0 0-1.527-.8c-1.447 0-2.733 1.768-2.733 3.858 0 1.286.643 2.652 2.009 2.652a2.145 2.145 0 0 0 1.527-.643l-.08.563h1.607l1.206-7.715zm-.723 4.259c0 .884-.4 2.009-1.286 2.009-.563 0-.884-.482-.884-1.286 0-1.286.563-2.09 1.286-2.09.562.001.884.408.884 1.367z" class="prefix__cls-7" data-name="Caminho 204" transform="translate(-385.73 -214.239)"/>
            <path id="prefix__Caminho_205" d="M15.927 222.115l.964-5.786.161 5.786h1.125l2.09-5.786-.884 5.786h1.687l1.286-7.715H19.7l-1.6 4.742-.08-4.742h-2.334l-1.286 7.715z" class="prefix__cls-7" data-name="Caminho 205" transform="translate(-14.4 -214.239)"/>
            <path id="prefix__Caminho_206" d="M261.768 235.069c.482-2.652.563-4.822 1.688-4.42a6.309 6.309 0 0 1 .563-1.848h-.319c-.723 0-1.286.964-1.286.964l.161-.884h-1.527L260 235.149h1.768z" class="prefix__cls-7" data-name="Caminho 206" transform="translate(-235.327 -227.193)"/>
            <path id="prefix__Caminho_207" d="M349.454 227.2a5.692 5.692 0 0 0-1.929.321l-.241 1.366a4.751 4.751 0 0 1 1.768-.321c.563 0 1.045.08 1.045.563 0 .322-.08.4-.08.4h-.723c-1.366 0-2.893.563-2.893 2.411 0 1.447.964 1.768 1.527 1.768a2.415 2.415 0 0 0 1.688-.723l-.08.643h1.447l.643-4.42a1.877 1.877 0 0 0-2.172-2.008zm.4 3.617c0 .241-.161 1.527-1.125 1.527a.627.627 0 0 1-.643-.643c0-.4.241-.964 1.447-.964.242.08.242.08.323.08z" class="prefix__cls-7" data-name="Caminho 207" transform="translate(-313.048 -225.753)"/>
            <path id="prefix__Caminho_208" d="M396.168 235.069c.482-2.652.563-4.822 1.688-4.42a6.311 6.311 0 0 1 .563-1.848h-.319c-.723 0-1.286.964-1.286.964l.161-.884h-1.527l-1.045 6.269h1.768z" class="prefix__cls-7" data-name="Caminho 208" transform="translate(-356.226 -227.193)"/>
        </g>
        <g id="prefix__Grupo_309" data-name="Grupo 309" transform="translate(1.447 112.051)">
            <path id="prefix__Caminho_209" d="M180 225.947a1.206 1.206 0 0 0 1.286 1.366 3.059 3.059 0 0 0 1.205-.241l.241-1.366a3.483 3.483 0 0 1-.4.08c-.563 0-.643-.321-.563-.482l.482-2.813h.884l.241-1.527h-.8l.161-.964" class="prefix__cls-8" data-name="Caminho 209" transform="translate(-163.364 -219.277)"/>
            <path id="prefix__Caminho_210" d="M218.4 232.325c0 2.25.723 2.813 2.009 2.813a4.173 4.173 0 0 0 1.688-.241l.321-1.527a4.818 4.818 0 0 1-1.688.4c-1.768 0-1.447-1.286-1.447-1.286h3.3a10.419 10.419 0 0 0 .241-1.447 2.177 2.177 0 0 0-2.331-2.331c-1.693-.158-2.093 1.61-2.093 3.619zm2.009-2.331c.884 0 1.045 1.045 1.045 1.125h-2.09c0-.079.161-1.124 1.045-1.124z" class="prefix__cls-8" data-name="Caminho 210" transform="translate(-197.906 -227.102)"/>
            <path id="prefix__Caminho_211" d="M307.617 220.6l.321-1.768a3.95 3.95 0 0 1-1.366.4c-1.125 0-1.607-.884-1.607-1.848 0-1.929.964-2.974 2.09-2.974a2.684 2.684 0 0 1 1.447.482l.241-1.688a5.651 5.651 0 0 0-1.848-.4c-1.848 0-2.893 1.607-2.893 4.661 0 2.009.161 3.375 2.09 3.375a7.214 7.214 0 0 0 1.525-.24z" class="prefix__cls-8" data-name="Caminho 211" transform="translate(-274.907 -212.8)"/>
            <path id="prefix__Caminho_212" d="M87.284 230.407a4.75 4.75 0 0 1 1.768-.322c.563 0 1.045.08 1.045.563 0 .321-.08.4-.08.4h-.723c-1.366 0-2.893.563-2.893 2.411 0 1.447.964 1.768 1.527 1.768a2.415 2.415 0 0 0 1.688-.723l-.08.643h1.447l.643-4.42c0-1.848-1.607-1.929-2.25-1.929m1.206 3.456a2.631 2.631 0 0 1-1.929 1.527.627.627 0 0 1-.643-.643c0-.4.241-.964 1.447-.964a6.565 6.565 0 0 0 1.122.082z" class="prefix__cls-8" data-name="Caminho 212" transform="translate(-79.167 -227.193)"/>
            <path id="prefix__Caminho_213" d="M136 232.829a6.8 6.8 0 0 0 1.848.161 2.06 2.06 0 0 0 2.411-2.09c0-2.009-1.929-1.607-1.929-2.411 0-.4.321-.563.884-.563.241 0 1.125.08 1.125.08l.241-1.447a6.1 6.1 0 0 0-1.527-.161c-1.206 0-1.607.482-1.607 2.09 0 1.848 1.205 1.688 1.205 2.411 0 .482-.563.563-.964.563" class="prefix__cls-8" data-name="Caminho 213" transform="translate(-123.784 -225.034)"/>
            <path id="prefix__Caminho_214" d="M438.6 217.29a2.228 2.228 0 0 0-1.527-.8c-1.447 0-1.929 1.768-1.929 3.858 0 1.286-.161 2.652 1.206 2.652a2.145 2.145 0 0 0 1.527-.643l-.08.563h1.607l1.206-7.715m-2.089 4.179c0 .884-.723 2.009-1.607 2.009-.562 0-.884-.482-.884-1.286 0-1.286.563-2.09 1.286-2.09a1.228 1.228 0 0 1 1.207 1.362z" class="prefix__cls-8" data-name="Caminho 214" transform="translate(-392.875 -214.959)"/>
            <path id="prefix__Caminho_215" d="M15.927 222.115l.964-5.786.161 5.786h1.125l2.09-5.786-.884 5.786h1.687l1.286-7.715h-2.009l-2.25 4.742-.08-4.742h-.884l-2.733 7.715z" class="prefix__cls-8" data-name="Caminho 215" transform="translate(-14.4 -214.239)"/>
            <path id="prefix__Caminho_216" d="M260.8 235.069h1.688c.482-2.652.563-4.822 1.688-4.42a6.308 6.308 0 0 1 .563-1.848h-.321c-.723 0-1.286.964-1.286.964l.161-.884" class="prefix__cls-8" data-name="Caminho 216" transform="translate(-236.047 -227.193)"/>
            <path id="prefix__Caminho_217" d="M347.284 230.407a4.75 4.75 0 0 1 1.768-.322c.563 0 1.045.08 1.045.563 0 .321-.08.4-.08.4h-.723c-1.366 0-2.893.563-2.893 2.411 0 1.447.964 1.768 1.527 1.768a2.415 2.415 0 0 0 1.688-.723l-.08.643h1.447l.643-4.42c0-1.848-1.607-1.929-2.25-1.929m1.206 3.456a2.631 2.631 0 0 1-1.929 1.527.627.627 0 0 1-.643-.643c0-.4.241-.964 1.447-.964a7.069 7.069 0 0 0 1.122.082z" class="prefix__cls-8" data-name="Caminho 217" transform="translate(-313.048 -227.193)"/>
            <path id="prefix__Caminho_218" d="M395.2 235.069h1.688c.482-2.652.563-4.822 1.688-4.42a6.307 6.307 0 0 1 .563-1.848h-.321c-.723 0-1.286.964-1.286.964l.161-.884" class="prefix__cls-8" data-name="Caminho 218" transform="translate(-356.945 -227.193)"/>
        </g>
    </g>
</svg>
