<svg xmlns="http://www.w3.org/2000/svg" width="76.493" height="23.191" viewBox="0 0 76.493 23.191">
    <defs>
        <style>
            .prefix__cls-1{fill:#3c58bf}.prefix__cls-2{fill:#293688}.prefix__cls-6{fill:#051244}
        </style>
    </defs>
    <g id="prefix__visa" transform="translate(0 -175.6)">
        <path id="prefix__Caminho_178" d="M184.8 202.255l3.885-21.855h6.071l-3.764 21.855z" class="prefix__cls-1" data-name="Caminho 178" transform="translate(-156.753 -4.071)"/>
        <path id="prefix__Caminho_179" d="M184.8 202.255l4.978-21.855h4.978l-3.764 21.855z" class="prefix__cls-2" data-name="Caminho 179" transform="translate(-156.753 -4.071)"/>
        <path id="prefix__Caminho_180" d="M266.577 176.571a15.4 15.4 0 0 0-5.585-.971c-6.071 0-10.442 3.035-10.442 7.406 0 3.278 3.035 4.978 5.464 6.071s3.157 1.821 3.157 2.793c0 1.457-1.943 2.186-3.643 2.186a13.2 13.2 0 0 1-5.828-1.214l-.85-.364-.85 4.978a19.687 19.687 0 0 0 6.921 1.214c6.435 0 10.685-3.035 10.685-7.649 0-2.55-1.578-4.492-5.221-6.071-2.185-1.093-3.521-1.7-3.521-2.793 0-.971 1.093-1.943 3.521-1.943a11.136 11.136 0 0 1 4.614.85l.607.243.971-4.735z" class="prefix__cls-1" data-name="Caminho 180" transform="translate(-210.36)"/>
        <path id="prefix__Caminho_181" d="M266.577 176.571a15.4 15.4 0 0 0-5.585-.971c-6.071 0-9.349 3.035-9.349 7.406 0 3.278 1.943 4.978 4.371 6.071s3.157 1.821 3.157 2.793c0 1.457-1.943 2.186-3.643 2.186a13.2 13.2 0 0 1-5.828-1.214l-.85-.364-.85 4.978a19.687 19.687 0 0 0 6.921 1.214c6.435 0 10.685-3.035 10.685-7.649 0-2.55-1.578-4.492-5.221-6.071-2.185-1.093-3.521-1.7-3.521-2.793 0-.971 1.093-1.943 3.521-1.943a11.136 11.136 0 0 1 4.614.85l.607.243.971-4.735z" class="prefix__cls-2" data-name="Caminho 181" transform="translate(-210.36)"/>
        <path id="prefix__Caminho_182" d="M370.663 180.4c-1.457 0-2.55.121-3.157 1.578l-9.106 20.277h6.557l1.214-3.643h7.771l.728 3.643h5.83l-5.1-21.855zm-2.793 14.57c.364-1.093 2.428-6.435 2.428-6.435s.486-1.336.85-2.186l.364 2.064s1.214 5.464 1.457 6.678h-5.1z" class="prefix__cls-1" data-name="Caminho 182" transform="translate(-304.005 -4.071)"/>
        <path id="prefix__Caminho_183" d="M372.12 180.4c-1.457 0-2.55.121-3.157 1.578L358.4 202.255h6.557l1.214-3.643h7.771l.728 3.643h5.83l-5.1-21.855zm-4.25 14.57c.486-1.214 2.428-6.435 2.428-6.435s.486-1.336.85-2.186l.364 2.064s1.214 5.464 1.457 6.678h-5.1z" class="prefix__cls-2" data-name="Caminho 183" transform="translate(-304.005 -4.071)"/>
        <path id="prefix__Caminho_184" d="M60.306 196.377l-.606-3.157c-1.093-3.643-4.614-7.649-8.5-9.592l5.464 19.427h6.556l9.835-21.855H66.5z" class="prefix__cls-1" data-name="Caminho 184" transform="translate(-43.429 -4.75)"/>
        <path id="prefix__Caminho_185" d="M60.306 196.377l-.606-3.157c-1.093-3.643-4.614-7.649-8.5-9.592l5.464 19.427h6.556l9.835-21.855h-5.342z" class="prefix__cls-2" data-name="Caminho 185" transform="translate(-43.429 -4.75)"/>
        <path id="prefix__Caminho_186" d="M0 180.4l1.093.243c7.771 1.821 13.113 6.435 15.177 11.9l-2.186-10.32c-.364-1.457-1.457-1.821-2.793-1.821z" data-name="Caminho 186" transform="translate(0 -4.071)" style="fill:#ffbc00"/>
        <path id="prefix__Caminho_187" d="M0 180.4c7.771 1.821 14.206 6.557 16.27 12.02l-2.064-8.62a2.964 2.964 0 0 0-2.914-2.307z" data-name="Caminho 187" transform="translate(0 -4.071)" style="fill:#f7981d"/>
        <path id="prefix__Caminho_188" d="M0 180.4c7.771 1.821 14.206 6.557 16.27 12.02l-1.457-4.735c-.364-1.457-.85-2.914-2.55-3.521z" data-name="Caminho 188" transform="translate(0 -4.071)" style="fill:#ed7c00"/>
        <g id="prefix__Grupo_307" data-name="Grupo 307" transform="translate(7.892 178.757)">
            <path id="prefix__Caminho_189" d="M67.056 208.542l-4.128-4.128-1.943 4.614-.486-3.035c-1.093-3.643-4.614-7.649-8.5-9.592l5.464 19.427h6.557z" class="prefix__cls-6" data-name="Caminho 189" transform="translate(-52 -196.4)"/>
            <path id="prefix__Caminho_190" d="M190.992 294.542l-5.221-5.342-.971 5.342z" class="prefix__cls-6" data-name="Caminho 190" transform="translate(-164.645 -275.116)"/>
            <path id="prefix__Caminho_191" d="M258.563 274.8c.486.486.729.85.607 1.336 0 1.457-1.943 2.185-3.643 2.185a13.2 13.2 0 0 1-5.828-1.214l-.85-.364-.85 4.978a19.686 19.686 0 0 0 6.921 1.214c3.885 0 7.042-1.093 8.863-3.035z" class="prefix__cls-6" data-name="Caminho 191" transform="translate(-218.253 -262.901)"/>
            <path id="prefix__Caminho_192" d="M364 235.506h5.707l1.214-3.643h7.771l.729 3.643h5.828l-2.064-8.863-7.285-7.043.364 1.943s1.214 5.464 1.457 6.678h-5.1c.486-1.214 2.428-6.435 2.428-6.435s.486-1.336.85-2.186" class="prefix__cls-6" data-name="Caminho 192" transform="translate(-316.647 -216.079)"/>
        </g>
    </g>
</svg>
