<svg xmlns="http://www.w3.org/2000/svg" width="71.336" height="24.874" viewBox="0 0 71.336 24.874">
    <defs>
        <style>
            .prefix__cls-1{fill:#2fabf7}.prefix__cls-2{fill:#228fe0}.prefix__cls-3{fill:#0571c1}
        </style>
    </defs>
    <g id="prefix__american-express" transform="translate(0 -164.397)">
        <path id="prefix__Caminho_618" d="M43.2 188.37h2.486l-1.246-3.17z" class="prefix__cls-1" data-name="Caminho 618" transform="translate(-37.085 -17.856)"/>
        <path id="prefix__Caminho_619" d="M242.37 187.716a2.207 2.207 0 0 0-.905-.114H239.2v1.812h2.265a2.207 2.207 0 0 0 .905-.114.882.882 0 0 0 .34-.793.629.629 0 0 0-.34-.791z" class="prefix__cls-2" data-name="Caminho 619" transform="translate(-205.345 -19.917)"/>
        <path id="prefix__Caminho_620" d="M61.254 164.4v1.359l-.683-1.359h-5.318v1.359l-.679-1.359h-7.246a6.892 6.892 0 0 0-3.17.679v-.679h-5.1v.679a3.271 3.271 0 0 0-2.151-.679H18.682l-1.245 2.831-1.246-2.831h-5.775v1.359l-.679-1.359H4.869L2.6 169.723 0 175.61h5.775l.679-1.812h1.585l.679 1.812h6.567v-1.358l.566 1.359h3.284l.566-1.359v1.359H35.44v-2.944h.226c.226 0 .226 0 .226.34v2.486h8.152v-.679a6.783 6.783 0 0 0 3.057.679h3.4l.679-1.812h1.586l.679 1.812h6.567v-1.7l1.019 1.7h5.322V164.4zm-38.27 9.511h-1.921v-6.227l-2.717 6.227h-1.7l-2.717-6.227v6.227h-3.856l-.793-1.7H5.434l-.679 1.812H2.6l3.4-8.039h2.832L12 173.572v-7.588h3.057l2.486 5.434 2.265-5.434h3.17zm7.7-6.227h-4.416v1.472h4.3v1.586h-4.3v1.586h4.415v1.7h-6.34v-8.039h6.341zm8.492 3.284a2.832 2.832 0 0 1 .34 1.472v1.586h-1.925v-1.019a2.7 2.7 0 0 0-.34-1.586c-.34-.34-.679-.34-1.359-.34h-2.037v2.944h-1.926v-8.039h4.309a4.34 4.34 0 0 1 2.265.34 1.93 1.93 0 0 1 .905 1.812 2.254 2.254 0 0 1-1.364 2.151 2.154 2.154 0 0 1 1.131.679zm3.4 2.944h-1.93v-8.039h1.924zm22.305 0H62.16l-3.624-6v6h-3.852l-.679-1.7h-3.96l-.679 1.812h-2.152a3.4 3.4 0 0 1-3.736-3.963 4.642 4.642 0 0 1 1.019-3.17 3.569 3.569 0 0 1 2.831-.905h1.812v1.7h-1.812a2.094 2.094 0 0 0-1.472.453 2.658 2.658 0 0 0-.566 1.812 2.463 2.463 0 0 0 .566 1.924 1.805 1.805 0 0 0 1.359.453h.8l2.6-6.227h2.824l3.17 7.588V166.1h2.831l3.284 5.548V166.1h1.926v7.813z" class="prefix__cls-3" data-name="Caminho 620"/>
        <g id="prefix__Grupo_145" data-name="Grupo 145" transform="translate(28.533 167.344)">
            <path id="prefix__Caminho_621" d="M358.4 188.37h2.6l-1.245-3.17z" class="prefix__cls-2" data-name="Caminho 621" transform="translate(-336.208 -185.2)"/>
            <path id="prefix__Caminho_622" d="M204.544 283.654V277.2l-2.944 3.17z" class="prefix__cls-2" data-name="Caminho 622" transform="translate(-201.6 -264.119)"/>
        </g>
        <path id="prefix__Caminho_623" d="M136.8 282.8v1.472h4.186v1.586H136.8v1.7h4.642l2.151-2.378-2.038-2.377z" class="prefix__cls-1" data-name="Caminho 623" transform="translate(-117.438 -101.582)"/>
        <path id="prefix__Caminho_624" d="M238.377 282.8H236v2.038h2.486c.679 0 1.132-.34 1.132-1.019a1.142 1.142 0 0 0-1.241-1.019z" class="prefix__cls-2" data-name="Caminho 624" transform="translate(-202.599 -101.599)"/>
        <path id="prefix__Caminho_625" d="M166.227 265.5v-5.1h-4.755a3.715 3.715 0 0 0-2.377.679v-.679h-5.208a3.594 3.594 0 0 0-2.265.679v-.679h-9.171v.679a4.376 4.376 0 0 0-2.486-.679h-6.115v.679a4.3 4.3 0 0 0-2.6-.679h-6.794l-1.586 1.7-1.472-1.7H111.2v11.1h9.964l1.586-1.7 1.472 1.7h6.115v-2.6h.793a6.888 6.888 0 0 0 2.6-.34v3.057h5.1v-2.943h.226c.34 0 .34 0 .34.34v2.6h15.4a4.439 4.439 0 0 0 2.6-.679v.679h4.869a5.085 5.085 0 0 0 2.717-.566 3.854 3.854 0 0 0 1.812-3.4 4.335 4.335 0 0 0-.569-2.146zm-35.1 1.812h-2.266v2.717h-3.624l-2.265-2.6-2.377 2.6h-7.473v-8.039h7.588l2.263 2.6 2.378-2.6h6c1.472 0 3.17.453 3.17 2.6-.113 2.267-1.7 2.72-3.4 2.72zm11.323-.453a2.569 2.569 0 0 1 .34 1.472v1.586h-1.924V268.9a2.528 2.528 0 0 0-.34-1.586c-.226-.34-.679-.34-1.359-.34h-2.038v2.943H135.2v-8.039h4.3a4.558 4.558 0 0 1 2.265.34 2 2 0 0 1 1.019 1.812 2.254 2.254 0 0 1-1.359 2.151 1.936 1.936 0 0 1 1.019.679zm7.813-3.284h-4.415v1.472h4.3v1.586h-4.3v1.586h4.415v1.7h-6.341v-8.039h6.341zm4.755 6.341H151.4v-1.7h3.623a.955.955 0 0 0 .793-.226.82.82 0 0 0 0-1.132.958.958 0 0 0-.679-.226c-1.812-.114-3.963 0-3.963-2.486 0-1.132.679-2.377 2.717-2.377h3.736v1.924h-3.517a1.678 1.678 0 0 0-.793.114c-.226.114-.226.34-.226.566 0 .34.226.453.453.566a1.439 1.439 0 0 0 .679.114h1.019a2.878 2.878 0 0 1 2.151.679 2.344 2.344 0 0 1 .566 1.7c0 1.689-1.016 2.482-2.941 2.482zm9.737-.793a3.3 3.3 0 0 1-2.377.793h-3.624v-1.7h3.624a.955.955 0 0 0 .793-.226.82.82 0 0 0 0-1.132.958.958 0 0 0-.679-.226c-1.812-.114-3.963 0-3.963-2.486 0-1.132.679-2.377 2.717-2.377h3.736v1.924h-3.4a1.678 1.678 0 0 0-.793.114c-.226.114-.226.34-.226.566 0 .34.114.453.453.566a1.439 1.439 0 0 0 .679.114h1.019a2.878 2.878 0 0 1 2.151.679.111.111 0 0 1 .114.114 2.6 2.6 0 0 1 .453 1.586 2.3 2.3 0 0 1-.675 1.69z" class="prefix__cls-3" data-name="Caminho 625" transform="translate(-95.462 -82.354)"/>
        <path id="prefix__Caminho_626" d="M298.37 283.716a2.208 2.208 0 0 0-.905-.114H295.2v1.812h2.265a2.208 2.208 0 0 0 .905-.114.882.882 0 0 0 .34-.793.629.629 0 0 0-.34-.792z" class="prefix__cls-2" data-name="Caminho 626" transform="translate(-253.42 -102.287)"/>
        <g id="prefix__Grupo_146" data-name="Grupo 146" transform="translate(28.533 167.344)">
            <path id="prefix__Caminho_627" d="M242.37 187.716a2.207 2.207 0 0 0-.905-.114H239.2v1.812h2.265a2.207 2.207 0 0 0 .905-.114.882.882 0 0 0 .34-.793.629.629 0 0 0-.34-.791z" class="prefix__cls-2" data-name="Caminho 627" transform="translate(-233.878 -187.262)"/>
            <path id="prefix__Caminho_628" d="M358.4 188.37h2.6l-1.245-3.17z" class="prefix__cls-2" data-name="Caminho 628" transform="translate(-336.208 -185.2)"/>
            <path id="prefix__Caminho_629" d="M204.544 283.654V277.2l-2.944 3.17z" class="prefix__cls-2" data-name="Caminho 629" transform="translate(-201.6 -264.119)"/>
        </g>
        <g id="prefix__Grupo_147" data-name="Grupo 147" transform="translate(33.401 181.198)">
            <path id="prefix__Caminho_630" d="M238.377 282.8H236v2.038h2.486c.679 0 1.132-.34 1.132-1.019a1.142 1.142 0 0 0-1.241-1.019z" class="prefix__cls-2" data-name="Caminho 630" transform="translate(-236 -282.796)"/>
        </g>
        <g id="prefix__Grupo_148" data-name="Grupo 148" transform="translate(41.78 181.307)">
            <path id="prefix__Caminho_631" d="M298.37 283.716a2.208 2.208 0 0 0-.905-.114H295.2v1.812h2.265a2.208 2.208 0 0 0 .905-.114.882.882 0 0 0 .34-.793.629.629 0 0 0-.34-.792z" class="prefix__cls-2" data-name="Caminho 631" transform="translate(-295.2 -283.594)"/>
        </g>
        <g id="prefix__Grupo_149" data-name="Grupo 149" transform="translate(0 164.401)">
            <path id="prefix__Caminho_632" d="M130.448 269.688l-1.586-1.7v1.924h-3.736l-2.265-2.6-2.486 2.6H112.9v-7.925h7.588l2.377 2.6 1.135-1.355-2.831-2.831H111.2v11.1h9.964l1.7-1.7 1.472 1.7h6.115z" class="prefix__cls-1" data-name="Caminho 632" transform="translate(-95.462 -246.752)"/>
            <path id="prefix__Caminho_633" d="M23.211 175.5l-1.472-1.586h-.676v-.679l-1.7-1.7-1.133 2.375h-1.587l-2.717-6.227v6.227h-3.853l-.793-1.7H5.434l-.793 1.7H2.6l3.4-7.925h2.832L12 173.572v-7.588h1.7l-1.584-1.584h-1.7v1.359l-.565-1.359H4.869L2.6 169.722 0 175.5h5.887l.679-1.7h1.586l.793 1.7h6.341v-1.359l.566 1.359h3.284l.566-1.359v1.359z" class="prefix__cls-1" data-name="Caminho 633" transform="translate(0 -164.4)"/>
            <path id="prefix__Caminho_634" d="M116.212 195.012L114.4 193.2l1.359 2.944z" class="prefix__cls-1" data-name="Caminho 634" transform="translate(-98.209 -189.113)"/>
        </g>
        <g id="prefix__Grupo_150" data-name="Grupo 150" transform="translate(11.209 164.51)">
            <path id="prefix__Caminho_635" d="M219.237 268.872a4.142 4.142 0 0 0 1.812-3.057l-1.586-1.586a3.35 3.35 0 0 1 .226 1.132 2.3 2.3 0 0 1-.679 1.7 3.3 3.3 0 0 1-2.378.793h-3.624v-1.7h3.624a.955.955 0 0 0 .793-.226.82.82 0 0 0 0-1.132.958.958 0 0 0-.679-.226c-1.812-.114-3.963 0-3.963-2.486 0-1.132.679-2.151 2.377-2.378l-1.245-1.245c-.226.114-.34.226-.453.226V258h-5.208a3.592 3.592 0 0 0-2.265.679V258H196.7v.679a4.376 4.376 0 0 0-2.486-.679H188.1v.679a4.3 4.3 0 0 0-2.6-.679h-6.8l-1.586 1.7-1.472-1.7H174.4l3.4 3.4 1.7-1.812h6c1.472 0 3.17.453 3.17 2.6 0 2.265-1.586 2.717-3.284 2.717h-2.265v1.7l1.7 1.7v-1.7h.566a6.887 6.887 0 0 0 2.6-.34v3.057h5.1v-2.957h.226c.34 0 .34 0 .34.34v2.6h15.4a4.439 4.439 0 0 0 2.6-.679v.679h4.864a4.492 4.492 0 0 0 2.717-.453zm-22.532-4.072a2.569 2.569 0 0 1 .34 1.472v1.586h-1.924v-1.019a2.527 2.527 0 0 0-.34-1.586c-.226-.34-.679-.34-1.359-.34h-2.038v2.944h-1.924v-8.039h4.3a4.56 4.56 0 0 1 2.265.34 2 2 0 0 1 1.019 1.812 2.254 2.254 0 0 1-1.359 2.151 1.936 1.936 0 0 1 1.019.68zm7.813-3.284H200.1v1.472h4.3v1.586h-4.3v1.586h4.415v1.7h-6.341v-8.039h6.341zm4.755 6.341h-3.623v-1.7h3.624a.955.955 0 0 0 .793-.226.82.82 0 0 0 0-1.132.958.958 0 0 0-.679-.226c-1.812-.114-3.963 0-3.963-2.486 0-1.132.679-2.378 2.717-2.378h3.736v1.924h-3.51a1.68 1.68 0 0 0-.793.114c-.226.114-.226.34-.226.567 0 .34.226.453.453.566a1.439 1.439 0 0 0 .679.114h1.019a2.878 2.878 0 0 1 2.151.679 2.344 2.344 0 0 1 .566 1.7c0 1.692-1.019 2.484-2.944 2.484z" class="prefix__cls-2" data-name="Caminho 635" transform="translate(-160.926 -244.802)"/>
            <path id="prefix__Caminho_636" d="M459.2 284.281c0 .34.114.453.453.566a1.439 1.439 0 0 0 .679.114h1.019a3.287 3.287 0 0 1 1.586.34l-1.7-1.7h-1.019a1.68 1.68 0 0 0-.793.114.864.864 0 0 0-.224.566z" class="prefix__cls-2" data-name="Caminho 636" transform="translate(-405.418 -266.795)"/>
            <path id="prefix__Caminho_637" d="M431.2 240.4l.226.34h.114z" class="prefix__cls-2" data-name="Caminho 637" transform="translate(-381.381 -229.725)"/>
            <path id="prefix__Caminho_638" d="M387.2 196.4l1.924 4.642v-2.717z" class="prefix__cls-2" data-name="Caminho 638" transform="translate(-343.608 -191.965)"/>
            <path id="prefix__Caminho_639" d="M103.43 173.353h.226c.226 0 .226 0 .226.34v2.486h8.154v-.679a6.784 6.784 0 0 0 3.057.679h3.4l.679-1.812h1.586l.679 1.812h6.567v-1.132l-1.586-1.586v1.245h-3.85l-.568-1.811h-3.963l-.679 1.812h-2.151a3.4 3.4 0 0 1-3.736-3.963 4.642 4.642 0 0 1 1.019-3.17 3.569 3.569 0 0 1 2.831-.905h1.812v1.7h-1.812a2.093 2.093 0 0 0-1.472.453 2.658 2.658 0 0 0-.566 1.812 2.463 2.463 0 0 0 .566 1.924 1.805 1.805 0 0 0 1.359.453h.793l2.6-6.227h1.132l-1.586-1.586h-2.944a6.893 6.893 0 0 0-3.17.679v-.677h-4.982v.679a3.271 3.271 0 0 0-2.151-.679H86.673l-1.245 2.831-1.246-2.831H79.2l1.586 1.586h2.264l1.924 4.186.679.679 2.038-4.982h3.17v8.039h-1.924v-6.227l-1.924 4.529 3.287 3.29h13.021zm5.208-6.68h1.924v8.039h-1.927zm-9.964 1.7h-4.415v1.472h4.3v1.586h-4.3v1.586h4.415v1.7h-6.341v-8.039h6.341zm3.17 6.227H99.92v-8.039h4.3a4.341 4.341 0 0 1 2.265.34 1.93 1.93 0 0 1 .905 1.812 2.254 2.254 0 0 1-1.359 2.151 1.482 1.482 0 0 1 .905.679 2.832 2.832 0 0 1 .34 1.472v1.585h-1.924v-1.027a2.7 2.7 0 0 0-.34-1.586c-.114-.226-.453-.226-1.132-.226h-2.038v2.831z" class="prefix__cls-2" data-name="Caminho 639" transform="translate(-79.2 -165.196)"/>
        </g>
    </g>
</svg>
